<svg xmlns="http://www.w3.org/2000/svg" xmlns:xlink="http://www.w3.org/1999/xlink" width="100%" height="100%" version="1.1" viewBox="0 0 78325 50917" xml:space="preserve" style="fill-rule:evenodd;clip-rule:evenodd;stroke-linecap:square;stroke-linejoin:round;stroke-miterlimit:1.5"><g id="UI-Layer-Architecture"><g id="Layers"><g id="UI-Layer"><rect width="72187.8" height="48017.3" x="6137.09" y="1442.96" style="fill:#ebf7fd"/><text x="39588.4" y="6934.78" style="font-family:'Lato-Bold','Lato',sans-serif;font-weight:700;font-size:5000px;fill:#d8ebf6">UI</text></g><g id="Bounded-Context"><rect width="52850.2" height="38998.8" x="15705.9" y="8611.32" style="fill:#f3f2fe;fill-opacity:.5;stroke:#525a6c;stroke-width:43.9px;stroke-dasharray:217.12,217.12,0,0"/><g><text x="0" y="0" style="font-family:'Lato-Bold','Lato',sans-serif;font-weight:700;font-size:128px;fill:#91a6c8;fill-opacity:.5" transform="matrix(13.0208,-1.45597e-16,4.62062e-14,13.0208,33912,11349)">BOUNDED</text><text x="665.024" y="0" style="font-family:'Lato-Bold','Lato',sans-serif;font-weight:700;font-size:128px;fill:#91a6c8;fill-opacity:.5" transform="matrix(13.0208,-1.45597e-16,4.62062e-14,13.0208,33912,11349)">CONTEXT</text></g></g><g id="Product-Feature"><path d="M66297.7,45701.8l-48333.5,-0l-0,-32544.2l48333.5,0l0,32544.2Z" style="fill:#eefdfd;stroke:#a1f1f1;stroke-width:43.43px"/><g><text x="36290.6" y="15841.1" style="font-family:'Lato-Bold','Lato',sans-serif;font-weight:700;font-size:1250px;fill:#c3f4f4" transform="matrix(1,2.71372e-17,3.43347e-16,1,0.00823314,-1.81899e-12)">PR<tspan x="37860.6" y="15841.1">O</tspan>DUCT FEA<tspan x="44740.6" y="15841.1">T</tspan>URE</text></g></g><g id="Presentation"><rect width="3634.46" height="13624.7" x="61061.3" y="30806.9" style="fill:#e3f2fc;stroke:#284c63;stroke-width:4.17px;stroke-linecap:round"/><g><text x="63330.4" y="41122.1" style="font-family:'Lato-Bold','Lato',sans-serif;font-weight:700;font-size:1250px;fill:#bee1f7" transform="matrix(8.83696e-17,-1,1,-2.82115e-16,22208.3,104452)">PRESENTER</text></g></g><g id="Data-Store"><rect width="3634.46" height="13624.7" x="61061.3" y="14427.8" style="fill:#e8fce3;stroke:#35931e;stroke-width:4.17px;stroke-linecap:round"/><g><text x="63330.4" y="24947.6" style="font-family:'Lato-Bold','Lato',sans-serif;font-weight:700;font-size:1250px;fill:#c9f8be" transform="matrix(8.83696e-17,-1,1,-2.82115e-16,38382.7,88278)">D<tspan x="64232.9 65028.5 65680.4" y="24947.6 24947.6 24947.6">ATA</tspan> ST<tspan x="68174.8" y="24947.6">O</tspan>RE</text></g></g><g id="DI"><g><g><rect width="73576.3" height="1455.99" x="4748.61" y="49460.5" style="fill:#c8d2e6"/></g><g><g><text x="37750.8" y="50420.6" style="font-family:'Lato-Bold','Lato',sans-serif;font-weight:700;font-size:626.705px;fill:#fff" transform="matrix(1,0,0,0.99728,0,137.138)">DEPENDENCY INJECTION</text></g></g></g><g><g><rect width="73576.3" height="1455.99" x="4748.61" y="0" style="fill:#c8d2e6"/></g><g><g><text x="37750.8" y="960.185" style="font-family:'Lato-Bold','Lato',sans-serif;font-weight:700;font-size:626.705px;fill:#fff" transform="matrix(1,0,0,0.997282,0,2.60979)">DEPENDENCY INJECTION</text></g></g></g><g><path d="M4748.7,67.542l1388.46,0l0,49392.8l-1388.46,-0l-0,-49392.8Z" style="fill:#c8d2e6"/></g></g><g id="External-Internal-User"><rect width="4748.62" height="50916.4" x="0" y="0" style="fill:#525a6c"/><g><g><text x="2826.19" y="27372.6" style="font-family:'Lato-Bold','Lato',sans-serif;font-weight:700;font-size:1250px;fill:#e8eaee" transform="matrix(6.10698e-17,-1,0.999999,6.13951e-17,-24546.3,30198.7)">USERS</text></g></g></g></g><g id="Logic"><g id="Data-Access-Logic"><path d="M47059.7,32123.6l-10306.7,-0l-0,-5455.91l10306.7,0l-0,5455.91Z" style="fill:#f5fdfd;stroke:#647dd0;stroke-width:20.83px"/><text x="37893.5" y="29684.5" style="font-family:'Lato-Bold','Lato',sans-serif;font-weight:700;font-size:833.333px;fill:#7b9bcd">D<tspan x="38495.1 39025.6 39460.1" y="29684.5 29684.5 29684.5">ATA</tspan> A<tspan x="40783.1" y="29684.5">C</tspan>CESS L<tspan x="43830.1" y="29684.5">O</tspan>GIC</text></g><g id="Data-Store-Logic"><path d="M47059.7,23934l-10306.7,0l-0,-5455.9l10306.7,-0l-0,5455.9Z" style="fill:#f5fdfd;stroke:#647dd0;stroke-width:20.83px"/><g><text x="16502.8" y="9193.56" style="font-family:'Lato-Bold','Lato',sans-serif;font-weight:700;font-size:266.667px;fill:#7b9bcd" transform="matrix(3.125,0,0,3.125,-13734.3,-7799.89)">D<tspan x="16695.4 16865.1 17004.2" y="9193.56 9193.56 9193.56">ATA</tspan> ST<tspan x="17536.3" y="9193.56">O</tspan>RE A<tspan x="18310.8" y="9193.56">C</tspan>CESS</text><text x="17407.2" y="9577.56" style="font-family:'Lato-Bold','Lato',sans-serif;font-weight:700;font-size:266.667px;fill:#7b9bcd" transform="matrix(3.125,0,0,3.125,-13734.3,-7799.89)">L<tspan x="17534.4" y="9577.56">O</tspan>GIC</text></g></g><g id="Presentation-Logic"><path d="M47059.7,40313.2l-10306.7,-0l-0,-5455.91l10306.7,0l-0,5455.91Z" style="fill:#f5fdfd;stroke:#647dd0;stroke-width:20.83px"/><g><text x="16826.4" y="9193.56" style="font-family:'Lato-Bold','Lato',sans-serif;font-weight:700;font-size:266.667px;fill:#7b9bcd" transform="matrix(3.125,0,0,3.125,-13734.3,8579.27)">PRESENT<tspan x="17956.8 18126.5" y="9193.56 9193.56">AT</tspan>ION</text><text x="16892" y="9577.56" style="font-family:'Lato-Bold','Lato',sans-serif;font-weight:700;font-size:266.667px;fill:#7b9bcd" transform="matrix(3.125,0,0,3.125,-13734.3,8579.27)">A<tspan x="17074.5" y="9577.56">C</tspan>CESS L<tspan x="18049.6" y="9577.56">O</tspan>GIC</text></g></g><g id="UI-Mapper"><path d="M57829.3,31453.2l-7645.09,-0l-0,-4046.96l7645.09,0l0,4046.96Z" style="fill:#f5fdfd;stroke:#647dd0;stroke-width:20.83px"/><g><text x="16917.2" y="9136.83" style="font-family:'Lato-Regular','Lato',sans-serif;font-size:192px;fill:#7b9bcd" transform="matrix(3.125,0,0,3.125,-442.63,665.934)">UI MAPPER</text><text x="16458.6" y="9403.5" style="font-family:'Lato-Regular','Lato',sans-serif;font-size:192px;fill:#7b9bcd" transform="matrix(3.125,0,0,3.125,-442.63,665.934)">PRESENT<tspan x="17270.2 17388.1" y="9403.5 9403.5">AT</tspan>ION T<tspan x="17999.6" y="9403.5">O</tspan> UI</text></g></g><g id="Markup-Logic"><path d="M32392.8,32123.6l-10306.7,-0l-0,-5455.91l10306.7,0l-0,5455.91Z" style="fill:#f5fdfd;stroke:#647dd0;stroke-width:20.83px"/><g><text x="17225.6" y="9193.56" style="font-family:'Lato-Bold','Lato',sans-serif;font-weight:700;font-size:266.667px;fill:#7b9bcd" transform="matrix(3.125,0,0,3.125,-28401.3,-244.21)">MARKUP</text><text x="17126.8" y="9593.56" style="font-family:'Lato-Bold','Lato',sans-serif;font-weight:700;font-size:266.667px;fill:#7b9bcd" transform="matrix(3.125,0,0,3.125,-28401.3,-244.21)">HANDLING</text><text x="17432.9" y="9993.56" style="font-family:'Lato-Bold','Lato',sans-serif;font-weight:700;font-size:266.667px;fill:#7b9bcd" transform="matrix(3.125,0,0,3.125,-28401.3,-244.21)">L<tspan x="17560.1" y="9993.56">O</tspan>GIC</text></g></g></g><g id="Data-Flows"><g id="Flows"><path d="M41906.4,34857.3l-0,-2733.67" style="fill:none;stroke:#3be7ec;stroke-width:125px;stroke-linecap:round"/><path d="M41906.4,26667.7l-0,-2733.67" style="fill:none;stroke:#3be7ec;stroke-width:125px;stroke-linecap:round"/><path d="M47059.7,37619.3l14001.5,-0" style="fill:none;stroke:#3be7ec;stroke-width:125px;stroke-linecap:round"/><g><path d="M51703,37681.8c-16.157,-0 -30.889,-6.144 -41.988,-16.221c-11.327,-9.237 -20.512,-23.692 -20.512,-46.28c-0,-34.494 28.005,-62.5 62.5,-62.5c34.495,0 62.5,28.005 62.5,62.5c-0,58.922 -62.5,62.501 -62.5,62.501Zm62.5,-578.198l-0,128.929c-0,34.494 -28.005,62.5 -62.5,62.5c-34.495,-0 -62.5,-28.006 -62.5,-62.5l-0,-128.929c-0,-34.495 28.005,-62.504 62.5,-62.504c34.495,-0 62.5,28.009 62.5,62.504Zm-0,-386.781c-0,34.495 -28.005,62.5 -62.5,62.5c-34.495,0 -62.5,-28.005 -62.5,-62.5l-0,-128.925c-0,-34.494 28.005,-62.5 62.5,-62.5c34.495,0 62.5,28.006 62.5,62.5l-0,128.925Zm-0,-644.629l-0,0.006l-0,128.927c-0,34.495 -28.005,62.5 -62.5,62.5c-34.495,-0 -62.5,-28.005 -62.5,-62.5l-0,-128.927l-0,-0.006c-0,-34.495 28.005,-62.5 62.5,-62.5c34.495,0 62.5,28.005 62.5,62.5Zm-0,-515.703l-0,0.006l-0,128.929c-0,34.495 -28.005,62.5 -62.5,62.5c-34.495,0 -62.5,-28.005 -62.5,-62.5l-0,-128.929l-0,-0.006c-0,-34.495 28.005,-62.5 62.5,-62.5c34.495,-0 62.5,28.005 62.5,62.5Zm-0,-386.766c-0,34.494 -28.005,62.5 -62.5,62.5c-34.495,-0 -62.5,-28.006 -62.5,-62.5l-0,-128.928c-0,-34.494 28.005,-62.5 62.5,-62.5c34.495,0 62.5,28.006 62.5,62.5l-0,128.928Zm-0,-644.626l-0,128.925c-0,34.495 -28.005,62.5 -62.5,62.5c-34.495,0 -62.5,-28.005 -62.5,-62.5l-0,-128.925c-0,-34.494 28.005,-62.5 62.5,-62.5c34.495,0 62.5,28.006 62.5,62.5Zm-0,-515.7l-0,128.924c-0,34.494 -28.005,62.5 -62.5,62.5c-34.495,-0 -62.5,-28.006 -62.5,-62.5l-0,-128.924c-0,-34.494 28.005,-62.501 62.5,-62.501c34.495,0 62.5,28.007 62.5,62.501Zm-0,-515.7l-0,128.927c-0,34.495 -28.005,62.5 -62.5,62.5c-34.495,-0 -62.5,-28.005 -62.5,-62.5l-0,-128.927c-0,-34.495 28.005,-62.5 62.5,-62.5c34.495,-0 62.5,28.005 62.5,62.5Zm-0,-515.696l-0,128.932c-0,34.494 -28.005,62.5 -62.5,62.5c-34.495,-0 -62.5,-28.006 -62.5,-62.5l-0,-128.932c-0,-34.495 28.005,-62.501 62.5,-62.501c34.495,-0 62.5,28.006 62.5,62.501Zm-0,-515.703l-0,128.926c-0,34.494 -28.005,62.5 -62.5,62.5c-34.495,-0 -62.5,-28.006 -62.5,-62.5l-0,-128.926c-0,-34.494 28.005,-62.503 62.5,-62.503c34.495,0 62.5,28.009 62.5,62.503Zm-0,-515.699l-0,128.925c-0,34.495 -28.005,62.5 -62.5,62.5c-34.495,-0 -62.5,-28.005 -62.5,-62.5l-0,-128.925c-0,-34.495 28.005,-62.5 62.5,-62.5c34.495,-0 62.5,28.005 62.5,62.5Zm-0.426,-523.027c0.279,2.043 0.426,4.475 0.426,7.33l-0,128.926c-0,34.495 -28.005,62.5 -62.5,62.5c-34.495,0 -62.5,-28.005 -62.5,-62.5l-0,-128.926c-0,22.593 9.189,37.048 20.52,46.286c-12.602,-11.438 -20.52,-27.945 -20.52,-46.286c-0,-34.495 28.005,-62.498 62.5,-62.498c32.015,0 58.44,24.122 62.074,55.168Z" style="fill:#3be7ec"/><path d="M56310.6,37681.8c-16.156,-0 -30.889,-6.144 -41.987,-16.221c-11.328,-9.237 -20.513,-23.692 -20.513,-46.28c0,-34.494 28.006,-62.5 62.5,-62.5c34.495,0 62.5,28.005 62.5,62.5c0,58.922 -62.5,62.501 -62.5,62.501Zm62.5,-578.198l0,128.929c0,34.494 -28.005,62.5 -62.5,62.5c-34.494,-0 -62.5,-28.006 -62.5,-62.5l0,-128.929c0,-34.495 28.006,-62.504 62.5,-62.504c34.495,-0 62.5,28.009 62.5,62.504Zm0,-386.781c0,34.495 -28.005,62.5 -62.5,62.5c-34.494,0 -62.5,-28.005 -62.5,-62.5l0,-128.925c0,-34.494 28.006,-62.5 62.5,-62.5c34.495,0 62.5,28.006 62.5,62.5l0,128.925Zm0,-644.629l0,0.006l0,128.927c0,34.495 -28.005,62.5 -62.5,62.5c-34.494,-0 -62.5,-28.005 -62.5,-62.5l0,-128.927l0,-0.006c0,-34.495 28.006,-62.5 62.5,-62.5c34.495,0 62.5,28.005 62.5,62.5Zm0,-515.703l0,0.006l0,128.929c0,34.495 -28.005,62.5 -62.5,62.5c-34.494,0 -62.5,-28.005 -62.5,-62.5l0,-128.929l0,-0.006c0,-34.495 28.006,-62.5 62.5,-62.5c34.495,-0 62.5,28.005 62.5,62.5Zm0,-386.766c0,34.494 -28.005,62.5 -62.5,62.5c-34.494,-0 -62.5,-28.006 -62.5,-62.5l0,-128.928c0,-34.494 28.006,-62.5 62.5,-62.5c34.495,0 62.5,28.006 62.5,62.5l0,128.928Zm0,-644.626l0,128.925c0,34.495 -28.005,62.5 -62.5,62.5c-34.494,0 -62.5,-28.005 -62.5,-62.5l0,-128.925c0,-34.494 28.006,-62.5 62.5,-62.5c34.495,0 62.5,28.006 62.5,62.5Zm0,-515.7l0,128.924c0,34.494 -28.005,62.5 -62.5,62.5c-34.494,-0 -62.5,-28.006 -62.5,-62.5l0,-128.924c0,-34.494 28.006,-62.501 62.5,-62.501c34.495,0 62.5,28.007 62.5,62.501Zm0,-515.7l0,128.927c0,34.495 -28.005,62.5 -62.5,62.5c-34.494,-0 -62.5,-28.005 -62.5,-62.5l0,-128.927c0,-34.495 28.006,-62.5 62.5,-62.5c34.495,-0 62.5,28.005 62.5,62.5Zm0,-515.696l0,128.932c0,34.494 -28.005,62.5 -62.5,62.5c-34.494,-0 -62.5,-28.006 -62.5,-62.5l0,-128.932c0,-34.495 28.006,-62.501 62.5,-62.501c34.495,-0 62.5,28.006 62.5,62.501Zm0,-515.803c0,0.045 0,0.087 0,0.1l0,128.926c0,34.494 -28.005,62.5 -62.5,62.5c-34.494,-0 -62.5,-28.006 -62.5,-62.5l0,-128.926c0,-34.494 28.006,-62.503 62.5,-62.503c34.476,0 62.47,27.979 62.5,62.403Zm0,-515.599l0,128.925c0,34.495 -28.005,62.5 -62.5,62.5c-34.494,-0 -62.5,-28.005 -62.5,-62.5l0,-128.925c0,-34.495 28.006,-62.5 62.5,-62.5c34.495,-0 62.5,28.005 62.5,62.5Zm-0.426,-523.027c0.28,2.043 0.426,4.475 0.426,7.33l0,128.926c0,34.495 -28.005,62.5 -62.5,62.5c-34.494,0 -62.5,-28.005 -62.5,-62.5l0,-128.926c0,22.593 9.189,37.048 20.52,46.286c-12.601,-11.438 -20.52,-27.945 -20.52,-46.286c0,-34.495 28.006,-62.498 62.5,-62.498c32.015,0 58.441,24.122 62.074,55.168Z" style="fill:#3be7ec"/></g><path d="M47059.7,21240.1l14001.5,0" style="fill:none;stroke:#3be7ec;stroke-width:125px;stroke-linecap:round"/><g><circle cx="47059.7" cy="21206" r="486.926" style="fill:#e3fbfc"/><path d="M47059.7,20556.8c358.322,-0 649.235,290.912 649.235,649.235c-0,358.322 -290.913,649.235 -649.235,649.235c-358.323,-0 -649.235,-290.913 -649.235,-649.235c-0,-358.323 290.912,-649.235 649.235,-649.235Zm-0,162.308c268.742,0 486.926,218.185 486.926,486.927c-0,268.742 -218.184,486.926 -486.926,486.926c-268.742,-0 -486.927,-218.184 -486.927,-486.926c0,-268.742 218.185,-486.927 486.927,-486.927Z" style="fill:#3be7ec"/><circle cx="47059.7" cy="21206" r="348.223" style="fill:#3be7ec"/></g><g><circle cx="41906.4" cy="23934" r="486.926" style="fill:#e3fbfc"/><path d="M41906.4,23284.8c358.322,0 649.235,290.913 649.235,649.235c-0,358.323 -290.913,649.235 -649.235,649.235c-358.323,0 -649.235,-290.912 -649.235,-649.235c-0,-358.322 290.912,-649.235 649.235,-649.235Zm-0,162.309c268.742,0 486.926,218.185 486.926,486.926c-0,268.742 -218.184,486.927 -486.926,486.927c-268.742,-0 -486.927,-218.185 -486.927,-486.927c0,-268.741 218.185,-486.926 486.927,-486.926Z" style="fill:#3be7ec"/><circle cx="41906.4" cy="23934" r="348.223" style="fill:#3be7ec"/></g><g><circle cx="41906.4" cy="26667.7" r="486.926" style="fill:#e3fbfc"/><path d="M41906.4,26018.4c358.322,0 649.235,290.912 649.235,649.235c-0,358.323 -290.913,649.235 -649.235,649.235c-358.323,0 -649.235,-290.912 -649.235,-649.235c-0,-358.323 290.912,-649.235 649.235,-649.235Zm-0,162.309c268.742,-0 486.926,218.184 486.926,486.926c-0,268.742 -218.184,486.926 -486.926,486.926c-268.742,0 -486.927,-218.184 -486.927,-486.926c0,-268.742 218.185,-486.926 486.927,-486.926Z" style="fill:#3be7ec"/><circle cx="41906.4" cy="26667.7" r="348.223" style="fill:#3be7ec"/></g><g><circle cx="41906.4" cy="32123.6" r="486.926" style="fill:#e3fbfc"/><path d="M41906.4,31474.3c358.322,-0 649.235,290.912 649.235,649.235c-0,358.322 -290.913,649.235 -649.235,649.235c-358.323,-0 -649.235,-290.913 -649.235,-649.235c-0,-358.323 290.912,-649.235 649.235,-649.235Zm-0,162.308c268.742,0 486.926,218.185 486.926,486.927c-0,268.742 -218.184,486.926 -486.926,486.926c-268.742,-0 -486.927,-218.184 -486.927,-486.926c0,-268.742 218.185,-486.927 486.927,-486.927Z" style="fill:#3be7ec"/><circle cx="41906.4" cy="32123.6" r="348.223" style="fill:#3be7ec"/></g><g><circle cx="41906.4" cy="34857.3" r="486.926" style="fill:#e3fbfc"/><path d="M41906.4,34208c358.322,0 649.235,290.913 649.235,649.235c-0,358.323 -290.913,649.235 -649.235,649.235c-358.323,0 -649.235,-290.912 -649.235,-649.235c-0,-358.322 290.912,-649.235 649.235,-649.235Zm-0,162.309c268.742,-0 486.926,218.184 486.926,486.926c-0,268.742 -218.184,486.926 -486.926,486.926c-268.742,0 -486.927,-218.184 -486.927,-486.926c0,-268.742 218.185,-486.926 486.927,-486.926Z" style="fill:#3be7ec"/><circle cx="41906.4" cy="34857.3" r="348.223" style="fill:#3be7ec"/></g><g><circle cx="47059.7" cy="37585.2" r="486.926" style="fill:#e3fbfc"/><path d="M47059.7,36936c358.322,-0 649.235,290.912 649.235,649.235c-0,358.323 -290.913,649.235 -649.235,649.235c-358.323,0 -649.235,-290.912 -649.235,-649.235c-0,-358.323 290.912,-649.235 649.235,-649.235Zm-0,162.309c268.742,-0 486.926,218.184 486.926,486.926c-0,268.742 -218.184,486.926 -486.926,486.926c-268.742,0 -486.927,-218.184 -486.927,-486.926c0,-268.742 218.185,-486.926 486.927,-486.926Z" style="fill:#3be7ec"/><circle cx="47059.7" cy="37585.2" r="348.223" style="fill:#3be7ec"/></g><g><path d="M32392.8,29429.7l4836.68,-0" style="fill:none;stroke:#3be7ec;stroke-width:125px;stroke-linecap:round"/><g><circle cx="32392.8" cy="29429.7" r="486.926" style="fill:#e3fbfc"/><path d="M32392.8,28780.5c358.322,-0 649.235,290.912 649.235,649.235c-0,358.322 -290.913,649.235 -649.235,649.235c-358.323,-0 -649.235,-290.913 -649.235,-649.235c-0,-358.323 290.912,-649.235 649.235,-649.235Zm-0,162.308c268.742,0 486.926,218.185 486.926,486.927c-0,268.742 -218.184,486.926 -486.926,486.926c-268.742,-0 -486.927,-218.184 -486.927,-486.926c0,-268.742 218.185,-486.927 486.927,-486.927Z" style="fill:#3be7ec"/><circle cx="32392.8" cy="29429.7" r="348.223" style="fill:#3be7ec"/></g><g><circle cx="36753" cy="29429.7" r="486.926" style="fill:#e3fbfc"/><path d="M36753,28780.5c358.322,-0 649.235,290.912 649.235,649.235c-0,358.322 -290.913,649.235 -649.235,649.235c-358.323,-0 -649.235,-290.913 -649.235,-649.235c-0,-358.323 290.912,-649.235 649.235,-649.235Zm-0,162.308c268.742,0 486.926,218.185 486.926,486.927c0,268.742 -218.184,486.926 -486.926,486.926c-268.742,-0 -486.927,-218.184 -486.927,-486.926c0,-268.742 218.185,-486.927 486.927,-486.927Z" style="fill:#3be7ec"/><circle cx="36753" cy="29429.7" r="348.223" style="fill:#3be7ec"/></g></g><path d="M64695.7,21240.1l13629.2,0" style="fill:none;stroke:#61ec3e;stroke-width:125px;stroke-linecap:round"/><path d="M64695.7,37619.3l13629.2,-0" style="fill:none;stroke:#40a9eb;stroke-width:125px;stroke-linecap:round"/><g><circle cx="64695.7" cy="21240.1" r="486.926" style="fill:#e8fce3"/><path d="M64695.7,20590.9c358.322,0 649.235,290.913 649.235,649.235c-0,358.323 -290.913,649.235 -649.235,649.235c-358.323,0 -649.235,-290.912 -649.235,-649.235c-0,-358.322 290.912,-649.235 649.235,-649.235Zm-0,162.309c268.742,0 486.926,218.184 486.926,486.926c0,268.742 -218.184,486.927 -486.926,486.927c-268.742,-0 -486.927,-218.185 -486.927,-486.927c0,-268.742 218.185,-486.926 486.927,-486.926Z" style="fill:#61ec3e"/><circle cx="64695.7" cy="21240.1" r="348.223" style="fill:#61ec3e"/></g><g><circle cx="61061.3" cy="21240.1" r="486.926" style="fill:#e8fce3"/><path d="M61061.3,20590.9c358.322,0 649.235,290.913 649.235,649.235c-0,358.323 -290.913,649.235 -649.235,649.235c-358.323,0 -649.235,-290.912 -649.235,-649.235c-0,-358.322 290.912,-649.235 649.235,-649.235Zm-0,162.309c268.742,0 486.926,218.184 486.926,486.926c-0,268.742 -218.184,486.927 -486.926,486.927c-268.742,-0 -486.927,-218.185 -486.927,-486.927c0,-268.742 218.185,-486.926 486.927,-486.926Z" style="fill:#61ec3e"/><circle cx="61061.3" cy="21240.1" r="348.223" style="fill:#61ec3e"/></g><g><circle cx="64695.7" cy="37619.3" r="486.926" style="fill:#e3f2fc"/><path d="M64695.7,36970.1c358.322,-0 649.235,290.912 649.235,649.235c-0,358.322 -290.913,649.235 -649.235,649.235c-358.323,-0 -649.235,-290.913 -649.235,-649.235c-0,-358.323 290.912,-649.235 649.235,-649.235Zm-0,162.308c268.742,0 486.926,218.185 486.926,486.927c0,268.742 -218.184,486.926 -486.926,486.926c-268.742,0 -486.927,-218.184 -486.927,-486.926c0,-268.742 218.185,-486.927 486.927,-486.927Z" style="fill:#40a9eb"/><circle cx="64695.7" cy="37619.3" r="348.223" style="fill:#40a9eb"/></g><g><circle cx="61061.3" cy="37619.3" r="486.926" style="fill:#e3f2fc"/><path d="M61061.3,36970.1c358.322,-0 649.235,290.912 649.235,649.235c-0,358.322 -290.913,649.235 -649.235,649.235c-358.323,-0 -649.235,-290.913 -649.235,-649.235c-0,-358.323 290.912,-649.235 649.235,-649.235Zm-0,162.308c268.742,0 486.926,218.185 486.926,486.927c-0,268.742 -218.184,486.926 -486.926,486.926c-268.742,0 -486.927,-218.184 -486.927,-486.926c0,-268.742 218.185,-486.927 486.927,-486.927Z" style="fill:#40a9eb"/><circle cx="61061.3" cy="37619.3" r="348.223" style="fill:#40a9eb"/></g><g><path d="M22086,29429.7l-8152.88,-0" style="fill:none;stroke:#7689ac;stroke-width:125px;stroke-linecap:round"/><g><circle cx="22086" cy="29429.7" r="486.926" style="fill:#f1f7f0"/><path d="M22086,28780.5c358.322,-0 649.235,290.912 649.235,649.235c-0,358.322 -290.913,649.235 -649.235,649.235c-358.323,-0 -649.235,-290.913 -649.235,-649.235c-0,-358.323 290.912,-649.235 649.235,-649.235Zm-0,162.308c268.742,0 486.926,218.185 486.926,486.927c0,268.742 -218.184,486.926 -486.926,486.926c-268.742,-0 -486.926,-218.184 -486.926,-486.926c-0,-268.742 218.184,-486.927 486.926,-486.927Z" style="fill:#7689ac"/><circle cx="22086" cy="29429.7" r="348.223" style="fill:#7689ac"/></g></g></g><g id="Flow-Descriptions"><g><path d="M43613.1,25984.1l-154.537,0l-0,-1132.08l-143.499,-0l220.767,-370.093l220.767,370.093l-143.498,-0l-0,1132.08Z" style="fill:#72f1d0"/><path d="M40415.1,24481.9l154.537,0l-0,1132.08l143.498,0l-220.767,370.092l-220.767,-370.092l143.499,0l-0,-1132.08Z" style="fill:#72f1d0"/><g><text x="54745.1" y="118108" style="font-family:'Lato-Bold','Lato',sans-serif;font-weight:700;font-size:333.333px;fill:#3be7ec" transform="matrix(6.12323e-17,-1,1,6.12323e-17,-75097.2,80971.5)">INPUT D<tspan x="56056.1 56268.3 56442.1" y="118108 118108 118108">ATA</tspan></text></g><g><text x="52891.9" y="117987" style="font-family:'Lato-Bold','Lato',sans-serif;font-weight:700;font-size:333.333px;fill:#3be7ec" transform="matrix(6.12323e-17,-1,1,6.12323e-17,-76829.2,78997.1)">DS MODEL</text></g></g><g><path d="M35309,28254.2l0,154.537l-1132.08,-0l-0,143.498l-370.093,-220.767l370.093,-220.767l-0,143.499l1132.08,-0Z" style="fill:#72f1d0"/><path d="M33806.8,30515.4l0,-154.537l1132.08,0l0,-143.499l370.092,220.768l-370.092,220.767l0,-143.499l-1132.08,0Z" style="fill:#72f1d0"/><text x="33564.5" y="30021.5" style="font-family:'Lato-Bold','Lato',sans-serif;font-weight:700;font-size:333.333px;fill:#3be7ec">INPUT D<tspan x="34875.5 35087.7 35261.5" y="30021.5 30021.5 30021.5">ATA</tspan></text><text x="33914.2" y="29126.4" style="font-family:'Lato-Bold','Lato',sans-serif;font-weight:700;font-size:333.333px;fill:#3be7ec">UI D<tspan x="34566.5 34778.7 34952.5" y="29126.4 29126.4 29126.4">ATA</tspan></text></g><g><path d="M53309.4,22264l0,-154.537l1132.08,0l-0,-143.498l370.092,220.767l-370.092,220.767l-0,-143.499l-1132.08,0Z" style="fill:#72f1d0"/><path d="M54811.6,20154.2l0,154.537l-1132.08,0l0,143.499l-370.092,-220.767l370.092,-220.767l0,143.498l1132.08,0Z" style="fill:#72f1d0"/><text x="52354.1" y="20978.2" style="font-family:'Lato-Bold','Lato',sans-serif;font-weight:700;font-size:333.333px;fill:#3be7ec">D<tspan x="52594.7 52806.9 52980.7" y="20978.2 20978.2 20978.2">ATA</tspan> ST<tspan x="53645.9" y="20978.2">O</tspan>RE MODEL</text><text x="53013.4" y="21800.1" style="font-family:'Lato-Bold','Lato',sans-serif;font-weight:700;font-size:333.333px;fill:#3be7ec">INPUT D<tspan x="54324.4 54536.6 54710.4" y="21800.1 21800.1 21800.1">ATA</tspan></text></g><g><path d="M53255.7,38747.6l0,-154.537l1132.08,0l-0,-143.498l370.092,220.767l-370.092,220.767l-0,-143.499l-1132.08,0Z" style="fill:#72f1d0"/><path d="M54757.9,36450.3l0,154.537l-1132.08,0l0,143.499l-370.092,-220.767l370.092,-220.767l0,143.498l1132.08,0Z" style="fill:#72f1d0"/><text x="52135.3" y="37333.9" style="font-family:'Lato-Bold','Lato',sans-serif;font-weight:700;font-size:333.333px;fill:#3be7ec">PRESENT<tspan x="53548.3 53760.5" y="37333.9 37333.9">AT</tspan>ION MODEL</text><text x="52135.3" y="38155.9" style="font-family:'Lato-Bold','Lato',sans-serif;font-weight:700;font-size:333.333px;fill:#3be7ec">REQUEST OBJECT D<tspan x="55233 55445.2 55619" y="38155.9 38155.9 38155.9">ATA</tspan></text></g><g><path d="M57405.1,35276.2l-154.537,0l0,-1132.08l-143.498,-0l220.767,-370.093l220.767,370.093l-143.499,-0l0,1132.08Z" style="fill:#72f1d0"/><path d="M50616.4,33774l154.537,0l0,1132.08l143.499,0l-220.767,370.092l-220.767,-370.092l143.498,0l0,-1132.08Z" style="fill:#72f1d0"/></g><g><path d="M43613.1,34232l-154.537,-0l-0,-1132.08l-143.499,-0l220.767,-370.092l220.767,370.092l-143.498,-0l-0,1132.08Z" style="fill:#72f1d0"/><path d="M40415.1,32729.9l154.537,-0l-0,1132.08l143.498,-0l-220.767,370.092l-220.767,-370.092l143.499,-0l-0,-1132.08Z" style="fill:#72f1d0"/><g><text x="134642" y="20672.7" style="font-family:'Lato-Bold','Lato',sans-serif;font-weight:700;font-size:333.333px;fill:#3be7ec" transform="matrix(6.12323e-17,1,-1,6.12323e-17,63432.6,-102235)">PRES MODEL</text></g><g><text x="132788" y="21038.7" style="font-family:'Lato-Bold','Lato',sans-serif;font-weight:700;font-size:333.333px;fill:#3be7ec" transform="matrix(6.12323e-17,1,-1,6.12323e-17,61945.4,-100016)">R<tspan x="132999" y="21038.7">O</tspan> D<tspan x="133570 133782 133956" y="21038.7 21038.7 21038.7">ATA</tspan></text></g></g></g></g><g id="Hints"><g><rect width="10133.5" height="4546.29" x="10639.2" y="14607.5" style="fill:#e5f3fa"/><g><text x="16578.5" y="12823.6" style="font-family:'Lato-Bold','Lato',sans-serif;font-weight:700;font-size:106.667px;fill:#7ec5f0" transform="matrix(3.125,0,0,3.125,-40599.6,-24283.2)">In UI la<tspan x="16907.8 16963" y="12823.6 12823.6">ye</tspan>r y<tspan x="17139.3" y="12823.6">o</tspan>u can ﬁnd all code / logic related to an<tspan x="18968.5" y="12823.6">y</tspan> used</text><text x="16578.5" y="12951.6" style="font-family:'Lato-Bold','Lato',sans-serif;font-weight:700;font-size:106.667px;fill:#7ec5f0" transform="matrix(3.125,0,0,3.125,-40599.6,-24283.2)">fr<tspan x="16657.9" y="12951.6">a</tspan>mework lik<tspan x="17242.1" y="12951.6">e</tspan> Ne<tspan x="17454.1" y="12951.6">x</tspan>t.js or React.js. Here y<tspan x="18530.4" y="12951.6">o</tspan>u can ﬁnd an<tspan x="19180.9" y="12951.6">y</tspan> use</text><text x="16578.5" y="13079.6" style="font-family:'Lato-Bold','Lato',sans-serif;font-weight:700;font-size:106.667px;fill:#7ec5f0" transform="matrix(3.125,0,0,3.125,-40599.6,-24283.2)">of cli tools, conﬁgur<tspan x="17503.2" y="13079.6">a</tspan>tions, HTML markup, styles etc.</text><text x="16578.5" y="13207.6" style="font-family:'Lato-Bold','Lato',sans-serif;font-weight:700;font-size:106.667px;fill:#7ec5f0" transform="matrix(3.125,0,0,3.125,-40599.6,-24283.2)">Gener<tspan x="16872.3" y="13207.6">a</tspan>lly e<tspan x="17118.7 17173.9" y="13207.6 13207.6">ve</tspan>rything what is not related to data fetching or</text><text x="16578.5" y="13335.6" style="font-family:'Lato-Bold','Lato',sans-serif;font-weight:700;font-size:106.667px;fill:#7ec5f0" transform="matrix(3.125,0,0,3.125,-40599.6,-24283.2)">business logic. Y<tspan x="17337.4" y="13335.6">o</tspan>u can ﬁnd here also setup for na<tspan x="18887.9" y="13335.6">v</tspan>igation or</text><text x="16578.5" y="13463.6" style="font-family:'Lato-Bold','Lato',sans-serif;font-weight:700;font-size:106.667px;fill:#7ec5f0" transform="matrix(3.125,0,0,3.125,-40599.6,-24283.2)">themes used within the app. An<tspan x="18057.5" y="13463.6">y</tspan> tests related setup can be</text><text x="16578.5" y="13591.6" style="font-family:'Lato-Bold','Lato',sans-serif;font-weight:700;font-size:106.667px;fill:#7ec5f0" transform="matrix(3.125,0,0,3.125,-40599.6,-24283.2)">also stored here.</text></g></g><g><rect width="10133.5" height="4546.29" x="63489.3" y="10884.5" style="fill:#d4f9ca"/><g><text x="16578.5" y="12823.6" style="font-family:'Lato-Bold','Lato',sans-serif;font-weight:700;font-size:106.667px;fill:#61ec3e" transform="matrix(3.125,0,0,3.125,12210.2,-28231.6)">Data store is a la<tspan x="17356.9 17412" y="12823.6 12823.6">ye</tspan>r which contains of store and data which is</text><text x="16578.5" y="12951.6" style="font-family:'Lato-Bold','Lato',sans-serif;font-weight:700;font-size:106.667px;fill:#61ec3e" transform="matrix(3.125,0,0,3.125,12210.2,-28231.6)">stored there. It&apos;s also visible via presenter so y<tspan x="18754.6" y="12951.6">o</tspan>u can access</text><text x="16578.5" y="13079.6" style="font-family:'Lato-Bold','Lato',sans-serif;font-weight:700;font-size:106.667px;fill:#61ec3e" transform="matrix(3.125,0,0,3.125,12210.2,-28231.6)">it either on presentation la<tspan x="17837.4 17892.5" y="13079.6 13079.6">ye</tspan>r or on ui la<tspan x="18473.3 18528.5" y="13079.6 13079.6">ye</tspan>r if for e<tspan x="18952.5" y="13079.6">x</tspan>ample</text><text x="16578.5" y="13207.6" style="font-family:'Lato-Bold','Lato',sans-serif;font-weight:700;font-size:106.667px;fill:#61ec3e" transform="matrix(3.125,0,0,3.125,12210.2,-28231.6)">y<tspan x="16633.7" y="13207.6">o</tspan>u would lik<tspan x="17204.9" y="13207.6">e</tspan> to just perform oper<tspan x="18235.8" y="13207.6">a</tspan>tions on store without</text><text x="16578.5" y="13335.6" style="font-family:'Lato-Bold','Lato',sans-serif;font-weight:700;font-size:106.667px;fill:#61ec3e" transform="matrix(3.125,0,0,3.125,12210.2,-28231.6)">an<tspan x="16693.1" y="13335.6">y</tspan> action on data source. There are few variants of</text><text x="16578.5" y="13463.6" style="font-family:'Lato-Bold','Lato',sans-serif;font-weight:700;font-size:106.667px;fill:#61ec3e" transform="matrix(3.125,0,0,3.125,12210.2,-28231.6)">approach to Data store la<tspan x="17775.5 17830.6" y="13463.6 13463.6">ye</tspan>r isolation here but this one is</text><text x="16578.5" y="13591.6" style="font-family:'Lato-Bold','Lato',sans-serif;font-weight:700;font-size:106.667px;fill:#61ec3e" transform="matrix(3.125,0,0,3.125,12210.2,-28231.6)">probably most con<tspan x="17456.1 17511.2" y="13591.6 13591.6">ve</tspan>nient for most de<tspan x="18374.5 18429.6" y="13591.6 13591.6">ve</tspan>lopers as it&apos;s a &apos;in the</text><text x="16578.5" y="13719.6" style="font-family:'Lato-Bold','Lato',sans-serif;font-weight:700;font-size:106.667px;fill:#61ec3e" transform="matrix(3.125,0,0,3.125,12210.2,-28231.6)">middle<tspan x="16899.7" y="13719.6">&apos;</tspan> solution.</text></g></g><g><rect width="10133.5" height="4546.29" x="51768.3" y="42520.6" style="fill:#d2ebfb"/><g><text x="16578.5" y="12823.6" style="font-family:'Lato-Bold','Lato',sans-serif;font-weight:700;font-size:106.667px;fill:#40a9eb" transform="matrix(3.125,0,0,3.125,529.509,3403.12)">Presentation la<tspan x="17302.1 17357.2" y="12823.6 12823.6">ye</tspan>r access is deﬁned within abstr<tspan x="18855.8" y="12823.6">a</tspan>ction of</text><text x="16578.5" y="12951.6" style="font-family:'Lato-Bold','Lato',sans-serif;font-weight:700;font-size:106.667px;fill:#40a9eb" transform="matrix(3.125,0,0,3.125,529.509,3403.12)">presenter<tspan x="17038.3" y="12951.6">.</tspan> It contains whole fr<tspan x="17995.9" y="12951.6">a</tspan>mework of communication</text><text x="16578.5" y="13079.6" style="font-family:'Lato-Bold','Lato',sans-serif;font-weight:700;font-size:106.667px;fill:#40a9eb" transform="matrix(3.125,0,0,3.125,529.509,3403.12)">and potential output deﬁnition. Y<tspan x="18146" y="13079.6">o</tspan>u can communicate with</text><text x="16578.5" y="13207.6" style="font-family:'Lato-Bold','Lato',sans-serif;font-weight:700;font-size:106.667px;fill:#40a9eb" transform="matrix(3.125,0,0,3.125,529.509,3403.12)">presentation via Request Objects. If y<tspan x="18350.7" y="13207.6">o</tspan>u need data from data</text><text x="16578.5" y="13335.6" style="font-family:'Lato-Bold','Lato',sans-serif;font-weight:700;font-size:106.667px;fill:#40a9eb" transform="matrix(3.125,0,0,3.125,529.509,3403.12)">source y<tspan x="16973.6" y="13335.6">o</tspan>u need to ask presenter for it. Presenter returns</text><text x="16578.5" y="13463.6" style="font-family:'Lato-Bold','Lato',sans-serif;font-weight:700;font-size:106.667px;fill:#40a9eb" transform="matrix(3.125,0,0,3.125,529.509,3403.12)">presentation model which y<tspan x="17891.8" y="13463.6">o</tspan>u can use on markup.</text><text x="16578.5" y="13591.6" style="font-family:'Lato-Bold','Lato',sans-serif;font-weight:700;font-size:106.667px;fill:#40a9eb" transform="matrix(3.125,0,0,3.125,529.509,3403.12)">Sometimes for special cases y<tspan x="17971.4" y="13591.6">o</tspan>u ma<tspan x="18257" y="13591.6">y</tspan> use mapper if y<tspan x="19048.8" y="13591.6">o</tspan>u need</text><text x="16578.5" y="13719.6" style="font-family:'Lato-Bold','Lato',sans-serif;font-weight:700;font-size:106.667px;fill:#40a9eb" transform="matrix(3.125,0,0,3.125,529.509,3403.12)">for a speciﬁc screen updated deﬁnition of that model</text></g></g><g><rect width="7802.61" height="3500.57" x="48326.5" y="22728.5" style="fill:#ddf8f8"/><g><text x="16578.5" y="12823.6" style="font-family:'Lato-Bold','Lato',sans-serif;font-weight:700;font-size:106.667px;fill:#3be7ec" transform="matrix(3.125,0,0,3.125,-3130.41,-16284.6)">Data store access logic is a gatewa<tspan x="18195.2" y="12823.6">y</tspan> for an<tspan x="18549.5" y="12823.6">y</tspan></text><text x="16578.5" y="12951.6" style="font-family:'Lato-Bold','Lato',sans-serif;font-weight:700;font-size:106.667px;fill:#3be7ec" transform="matrix(3.125,0,0,3.125,-3130.41,-16284.6)">data, it contains all of the logic required to get</text><text x="16578.5" y="13079.6" style="font-family:'Lato-Bold','Lato',sans-serif;font-weight:700;font-size:106.667px;fill:#3be7ec" transform="matrix(3.125,0,0,3.125,-3130.41,-16284.6)">data and potentially map it. It&apos;s also a form of</text><text x="16578.5" y="13207.6" style="font-family:'Lato-Bold','Lato',sans-serif;font-weight:700;font-size:106.667px;fill:#3be7ec" transform="matrix(3.125,0,0,3.125,-3130.41,-16284.6)">isolation between an<tspan x="17564.8" y="13207.6">y</tspan> markup related logic and</text><text x="16578.5" y="13335.6" style="font-family:'Lato-Bold','Lato',sans-serif;font-weight:700;font-size:106.667px;fill:#3be7ec" transform="matrix(3.125,0,0,3.125,-3130.41,-16284.6)">strictly logic related to data based oper<tspan x="18426.1" y="13335.6">a</tspan>tions</text></g></g><g><rect width="7802.61" height="3500.57" x="25871.2" y="33003" style="fill:#ddf8f8"/><g><text x="16578.5" y="12823.6" style="font-family:'Lato-Bold','Lato',sans-serif;font-weight:700;font-size:106.667px;fill:#3be7ec" transform="matrix(3.125,0,0,3.125,-25585.7,-5845.64)">Markup logic contains classic logic related to</text><text x="16578.5" y="12951.6" style="font-family:'Lato-Bold','Lato',sans-serif;font-weight:700;font-size:106.667px;fill:#3be7ec" transform="matrix(3.125,0,0,3.125,-25585.7,-5845.64)">handling user actions performed on markup,</text><text x="16578.5" y="13079.6" style="font-family:'Lato-Bold','Lato',sans-serif;font-weight:700;font-size:106.667px;fill:#3be7ec" transform="matrix(3.125,0,0,3.125,-25585.7,-5845.64)">lik<tspan x="16692" y="13079.6">e</tspan> handling clicks, lifecy<tspan x="17769.6" y="13079.6">c</tspan>le of components,</text><text x="16578.5" y="13207.6" style="font-family:'Lato-Bold','Lato',sans-serif;font-weight:700;font-size:106.667px;fill:#3be7ec" transform="matrix(3.125,0,0,3.125,-25585.7,-5845.64)">na<tspan x="16693.1" y="13207.6">v</tspan>igation etc.</text></g></g></g><g id="Frameworks"><g><text x="9341.49" y="27210.6" style="font-family:'Lato-Regular','Lato',sans-serif;font-size:2500px;fill:#3f4e6c">&lt;/&gt;</text><text x="8410.94" y="28481.6" style="font-family:'Lato-Bold','Lato',sans-serif;font-weight:700;font-size:833.333px;fill:#3f4e6c">FRAMEWORKS</text></g><g><text x="10592.1" y="33594.6" style="font-family:'Lato-Bold','Lato',sans-serif;font-weight:700;font-size:833.333px;fill:#3f4e6c">SSR</text><g><rect width="2700.37" height="826.987" x="10050.9" y="31773" style="fill:#3f4e6c"/><g><circle cx="12101.6" cy="32186.5" r="92.824" style="fill:#f2fdef"/><circle cx="12390.9" cy="32186.5" r="92.824" style="fill:#f2fdef"/><circle cx="11812.2" cy="32186.5" r="92.824" style="fill:#f2fdef"/><path d="M11287.8,32140.1l0,92.824c0,25.615 -20.796,46.411 -46.412,46.411l-940.718,0c-25.616,0 -46.412,-20.796 -46.412,-46.411l-0,-92.824c-0,-25.615 20.796,-46.412 46.412,-46.412l940.718,0c25.616,0 46.412,20.797 46.412,46.412Z" style="fill:#f2fdef"/></g><rect width="2700.37" height="826.987" x="10050.9" y="30796.7" style="fill:#3f4e6c"/><g><circle cx="12101.6" cy="31210.2" r="92.824" style="fill:#f2fdef"/><circle cx="12390.9" cy="31210.2" r="92.824" style="fill:#f2fdef"/><circle cx="11812.2" cy="31210.2" r="92.824" style="fill:#f2fdef"/><path d="M11287.8,31163.8l0,92.824c0,25.615 -20.796,46.411 -46.412,46.411l-940.718,0c-25.616,0 -46.412,-20.796 -46.412,-46.411l-0,-92.824c-0,-25.615 20.796,-46.412 46.412,-46.412l940.718,0c25.616,0 46.412,20.797 46.412,46.412Z" style="fill:#f2fdef"/></g><rect width="2700.37" height="826.987" x="10050.9" y="29820.3" style="fill:#3f4e6c"/><g><circle cx="12101.6" cy="30233.8" r="92.824" style="fill:#f2fdef"/><circle cx="12390.9" cy="30233.8" r="92.824" style="fill:#f2fdef"/><circle cx="11812.2" cy="30233.8" r="92.824" style="fill:#f2fdef"/><path d="M11287.8,30187.4l0,92.824c0,25.615 -20.796,46.411 -46.412,46.411l-940.718,0c-25.616,0 -46.412,-20.796 -46.412,-46.411l-0,-92.824c-0,-25.615 20.796,-46.412 46.412,-46.412l940.718,0c25.616,0 46.412,20.797 46.412,46.412Z" style="fill:#f2fdef"/></g></g></g><g><circle cx="10836.6" cy="23644.2" r="160.105" style="fill:#3f4e6c"/><circle cx="11401.1" cy="23644.2" r="160.105" style="fill:#3f4e6c"/><circle cx="11965.6" cy="23644.2" r="160.105" style="fill:#3f4e6c"/></g><g><circle cx="10836.6" cy="35215.3" r="160.105" style="fill:#3f4e6c"/><circle cx="11401.1" cy="35215.3" r="160.105" style="fill:#3f4e6c"/><circle cx="11965.6" cy="35215.3" r="160.105" style="fill:#3f4e6c"/></g></g></g></svg>