<svg xmlns="http://www.w3.org/2000/svg" xmlns:xlink="http://www.w3.org/1999/xlink" width="100%" height="100%" version="1.1" viewBox="0 0 78450 50917" xml:space="preserve" style="fill-rule:evenodd;clip-rule:evenodd;stroke-linecap:round;stroke-linejoin:round;stroke-miterlimit:1.5"><g id="UI-Layer-Architecture"><g id="Layers"><path d="M78449.9,49460.2l-73863.9,0l-0,-48010.7l73863.9,0l0,48010.7Z" style="fill:#fcfae3"/><path d="M69185.5,43441.8l-55335.1,-0l-0,-35967.2l55335.1,0l0,35967.2Z" style="fill:#fdfbec;stroke:#635128;stroke-width:4.17px"/><g id="DI"><g><g><rect width="78449.9" height="1455.99" x="0" y="49460.5" style="fill:#c8d2e6"/></g><g><g><text x="38259.2" y="50420.6" style="font-family:'Lato-Bold','Lato',sans-serif;font-weight:700;font-size:668.217px;fill:#fff" transform="matrix(1,0,0,0.935325,0,3260.94)">DEPENDENCY INJECTION</text></g></g></g><g><g><rect width="78449.9" height="1455.99" x="0" y="0" style="fill:#c8d2e6"/></g><g><g><text x="37451.8" y="960.185" style="font-family:'Lato-Bold','Lato',sans-serif;font-weight:700;font-size:668.217px;fill:#fff" transform="matrix(1,0,0,0.935327,0,62.098)">DEPENDENCY INJECTION</text></g></g></g></g></g><g id="UI-Layer"><rect width="4585.94" height="48016.1" x=".078" y="1449.58" style="fill:#e3f2fc"/><g><text x="3484.77" y="37698.5" style="font-family:'Lato-Bold','Lato',sans-serif;font-weight:700;font-size:3333.33px;fill:#d1eafa" transform="matrix(9.23273e-17,-1,1,7.42446e-17,-34213.7,41183.2)">PRESENT<tspan x="17614.8 19736.4" y="37698.5 37698.5">AT</tspan>ION</text></g></g><g id="Data-LAyer"><path d="M59171.9,15310.1l4699.46,-0l-0,20296.2l-4699.46,-0l-0,-20296.2Z" style="fill:#fef3f3;stroke:#f9b8b7;stroke-width:41.67px"/><g><text x="61883.2" y="28061.6" style="font-family:'Lato-Bold','Lato',sans-serif;font-weight:700;font-size:833.334px;fill:#fbd2d2" transform="matrix(1.21353e-16,-1,0.999999,3.08966e-17,33821.6,89944.7)">REPOSIT<tspan x="65265.3" y="28061.6">O</tspan>RY</text></g></g><text x="30875.5" y="6273.49" style="font-family:'Lato-Bold','Lato',sans-serif;font-weight:700;font-size:5000px;fill:#f8eec5">DOMAIN</text><text x="30460.5" y="9965.63" style="font-family:'Lato-Bold','Lato',sans-serif;font-weight:700;font-size:1250px;fill:#f7ebbf">SPECIFIC DOMAIN IMPLEMENT<tspan x="48768 49563.6" y="9965.63 9965.63">AT</tspan>ION</text><g id="Flows-Description"><g><path d="M50907.9,26606.9l0,-154.537l1132.08,0l0,-143.498l370.092,220.767l-370.092,220.767l0,-143.499l-1132.08,0Z" style="fill:#72f1d0"/><path d="M52410.1,24309.6l0,154.537l-1132.08,0l0,143.499l-370.092,-220.767l370.092,-220.767l0,143.498l1132.08,0Z" style="fill:#72f1d0"/><text x="50298.6" y="25193.2" style="font-family:'Lato-Bold','Lato',sans-serif;font-weight:700;font-size:333.333px;fill:#ebda3d">DOMAIN MODEL</text><text x="49787.6" y="26015.2" style="font-family:'Lato-Bold','Lato',sans-serif;font-weight:700;font-size:333.333px;fill:#ebda3d">REQUEST OBJECT D<tspan x="52885.2 53097.4 53271.2" y="26015.2 26015.2 26015.2">ATA</tspan></text></g><g><path d="M40766.9,26606.9l0,-154.537l1132.08,0l0,-143.498l370.092,220.767l-370.092,220.767l0,-143.499l-1132.08,0Z" style="fill:#72f1d0"/><path d="M42269.1,24309.6l0,154.537l-1132.08,0l-0,143.499l-370.093,-220.767l370.093,-220.767l-0,143.498l1132.08,0Z" style="fill:#72f1d0"/><text x="40157.6" y="25193.2" style="font-family:'Lato-Bold','Lato',sans-serif;font-weight:700;font-size:333.333px;fill:#ebda3d">DOMAIN MODEL</text><text x="39646.5" y="26015.2" style="font-family:'Lato-Bold','Lato',sans-serif;font-weight:700;font-size:333.333px;fill:#ebda3d">REQUEST OBJECT D<tspan x="42744.2 42956.4 43130.2" y="26015.2 26015.2 26015.2">ATA</tspan></text></g><g><path d="M40766.9,32304l0,-154.537l1132.08,0l0,-143.498l370.092,220.767l-370.092,220.767l0,-143.499l-1132.08,0Z" style="fill:#72f1d0"/><path d="M42269.1,30006.7l0,154.537l-1132.08,0l-0,143.499l-370.093,-220.767l370.093,-220.767l-0,143.498l1132.08,0Z" style="fill:#72f1d0"/><text x="40157.6" y="30890.3" style="font-family:'Lato-Bold','Lato',sans-serif;font-weight:700;font-size:333.333px;fill:#ebda3d">DOMAIN MODEL</text><text x="39646.5" y="31712.3" style="font-family:'Lato-Bold','Lato',sans-serif;font-weight:700;font-size:333.333px;fill:#ebda3d">REQUEST OBJECT D<tspan x="42744.2 42956.4 43130.2" y="31712.3 31712.3 31712.3">ATA</tspan></text></g><g><path d="M40766.9,20909.7l0,-154.537l1132.08,0l0,-143.498l370.092,220.767l-370.092,220.767l0,-143.499l-1132.08,0Z" style="fill:#72f1d0"/><path d="M42269.1,18612.5l0,154.537l-1132.08,0l-0,143.499l-370.093,-220.767l370.093,-220.767l-0,143.498l1132.08,0Z" style="fill:#72f1d0"/><text x="40157.6" y="19496.1" style="font-family:'Lato-Bold','Lato',sans-serif;font-weight:700;font-size:333.333px;fill:#ebda3d">DOMAIN MODEL</text><text x="39646.5" y="20318.1" style="font-family:'Lato-Bold','Lato',sans-serif;font-weight:700;font-size:333.333px;fill:#ebda3d">REQUEST OBJECT D<tspan x="42744.2 42956.4 43130.2" y="20318.1 20318.1 20318.1">ATA</tspan></text></g><g><path d="M21845.4,26603.6l0,-154.537l1132.08,-0l-0,-143.499l370.092,220.767l-370.092,220.767l-0,-143.498l-1132.08,-0Z" style="fill:#72f1d0"/><path d="M23347.6,24306.3l0,154.537l-1132.08,-0l0,143.498l-370.092,-220.767l370.092,-220.767l0,143.499l1132.08,-0Z" style="fill:#72f1d0"/><text x="21236.1" y="25189.9" style="font-family:'Lato-Bold','Lato',sans-serif;font-weight:700;font-size:333.333px;fill:#ebda3d">DOMAIN MODEL</text><text x="20725.1" y="26011.9" style="font-family:'Lato-Bold','Lato',sans-serif;font-weight:700;font-size:333.333px;fill:#ebda3d">REQUEST OBJECT D<tspan x="23822.7 24034.9 24208.7" y="26011.9 26011.9 26011.9">ATA</tspan></text></g><g><path d="M21845.4,32304l0,-154.537l1132.08,0l-0,-143.498l370.092,220.767l-370.092,220.767l-0,-143.499l-1132.08,0Z" style="fill:#72f1d0"/><path d="M23347.6,30006.7l0,154.537l-1132.08,0l0,143.499l-370.092,-220.767l370.092,-220.767l0,143.498l1132.08,0Z" style="fill:#72f1d0"/><text x="21236.1" y="30890.3" style="font-family:'Lato-Bold','Lato',sans-serif;font-weight:700;font-size:333.333px;fill:#ebda3d">DOMAIN MODEL</text><text x="20725.1" y="31712.3" style="font-family:'Lato-Bold','Lato',sans-serif;font-weight:700;font-size:333.333px;fill:#ebda3d">REQUEST OBJECT D<tspan x="23822.7 24034.9 24208.7" y="31712.3 31712.3 31712.3">ATA</tspan></text></g><g><path d="M21845.4,20909.7l0,-154.537l1132.08,0l-0,-143.498l370.092,220.767l-370.092,220.767l-0,-143.499l-1132.08,0Z" style="fill:#72f1d0"/><path d="M23347.6,18612.5l0,154.537l-1132.08,0l0,143.499l-370.092,-220.767l370.092,-220.767l0,143.498l1132.08,0Z" style="fill:#72f1d0"/><text x="21236.1" y="19496.1" style="font-family:'Lato-Bold','Lato',sans-serif;font-weight:700;font-size:333.333px;fill:#ebda3d">DOMAIN MODEL</text><text x="20725.1" y="20318.1" style="font-family:'Lato-Bold','Lato',sans-serif;font-weight:700;font-size:333.333px;fill:#ebda3d">REQUEST OBJECT D<tspan x="23822.7 24034.9 24208.7" y="20318.1 20318.1 20318.1">ATA</tspan></text></g></g><g id="Data-Flows"><g><path d="M38071.3,21714.2l-12440.1,0l-0,-3906.24l12440.1,0l-0,3906.24Z" style="fill:#fffffe;stroke:#f9ecb7;stroke-width:43.37px;stroke-linecap:square"/><g><text x="29768.3" y="20062.4" style="font-family:'Lato-Bold','Lato',sans-serif;font-weight:700;font-size:833.334px;fill:#f4e299" transform="matrix(1,6.01203e-17,3.03357e-17,0.999999,0,0.0109678)">SCENARIO</text></g></g><g><path d="M38071.3,33108.5l-12440.1,-0l-0,-3906.24l12440.1,0l-0,3906.24Z" style="fill:#fffffe;stroke:#f9ecb7;stroke-width:43.37px;stroke-linecap:square"/><g><text x="29211.9" y="31456.6" style="font-family:'Lato-Bold','Lato',sans-serif;font-weight:700;font-size:833.334px;fill:#f4e299" transform="matrix(1,6.01203e-17,3.03357e-17,0.999999,3.63798e-12,0.0171968)">INTERA<tspan x="32192.7 32751.5 33214.8" y="31456.6 31456.6 31456.6">CTO</tspan>R</text></g></g><g><path d="M38071.3,27408.5l-12440.1,0l-0,-3906.24l12440.1,0l-0,3906.24Z" style="fill:#fffffe;stroke:#f9ecb7;stroke-width:43.37px;stroke-linecap:square"/><g><text x="29959.4" y="25756.6" style="font-family:'Lato-Bold','Lato',sans-serif;font-weight:700;font-size:833.334px;fill:#f4e299" transform="matrix(1,6.01203e-17,3.03357e-17,0.999999,0,0.0140807)">USE CASE</text></g></g><g><path d="M25631.2,19761.1l-6069.31,-0l0,5694.24l6069.31,-0" style="fill:none;stroke:#ebda3d;stroke-width:125px"/><path d="M25631.2,31155.4l-6069.31,-0l0,-5700.02" style="fill:none;stroke:#ebda3d;stroke-width:125px"/><path d="M4586.02,25458.2l14975.9,-0" style="fill:none;stroke:#ebda3d;stroke-width:125px"/></g><g><path d="M44146.1,25458.2l15025.9,-0" style="fill:none;stroke:#ebda3d;stroke-width:125px"/><path d="M38071.3,31155.4l6069.3,-0l0,-5694.24l-6069.3,-0" style="fill:none;stroke:#ebda3d;stroke-width:125px"/><path d="M38071.3,19761.1l6069.3,-0l0,5700.02" style="fill:none;stroke:#ebda3d;stroke-width:125px"/></g><path d="M63871.4,25458.2l14578.5,-0" style="fill:none;stroke:#ec3c56;stroke-width:125px"/><g><circle cx="63871.4" cy="25458.2" r="486.926" style="fill:#fce3e7"/><path d="M63871.4,24809c358.322,-0 649.235,290.912 649.235,649.235c-0,358.322 -290.913,649.235 -649.235,649.235c-358.323,-0 -649.235,-290.913 -649.235,-649.235c-0,-358.323 290.912,-649.235 649.235,-649.235Zm-0,162.308c268.742,0 486.926,218.185 486.926,486.927c-0,268.742 -218.184,486.926 -486.926,486.926c-268.742,-0 -486.927,-218.184 -486.927,-486.926c0,-268.742 218.185,-486.927 486.927,-486.927Z" style="fill:#ec3c56"/><circle cx="63871.4" cy="25458.2" r="348.223" style="fill:#ec3c56"/></g><g><circle cx="59171.9" cy="25458.2" r="486.926" style="fill:#fce3e7"/><path d="M59171.9,24809c358.322,-0 649.235,290.912 649.235,649.235c-0,358.322 -290.913,649.235 -649.235,649.235c-358.323,-0 -649.235,-290.913 -649.235,-649.235c-0,-358.323 290.912,-649.235 649.235,-649.235Zm-0,162.308c268.742,0 486.926,218.185 486.926,486.927c-0,268.742 -218.184,486.926 -486.926,486.926c-268.742,-0 -486.927,-218.184 -486.927,-486.926c0,-268.742 218.185,-486.927 486.927,-486.927Z" style="fill:#ec3c56"/><circle cx="59171.9" cy="25458.2" r="348.223" style="fill:#ec3c56"/></g><g><circle cx="25631.2" cy="25458.2" r="486.926" style="fill:#fcfae3"/><path d="M25631.2,24809c358.323,-0 649.235,290.912 649.235,649.235c-0,358.322 -290.912,649.235 -649.235,649.235c-358.323,-0 -649.235,-290.913 -649.235,-649.235c-0,-358.323 290.912,-649.235 649.235,-649.235Zm-0,162.308c268.742,0 486.926,218.185 486.926,486.927c0,268.742 -218.184,486.926 -486.926,486.926c-268.742,-0 -486.926,-218.184 -486.926,-486.926c-0,-268.742 218.184,-486.927 486.926,-486.927Z" style="fill:#ebda3d"/><circle cx="25631.2" cy="25458.2" r="348.223" style="fill:#ebda3d"/></g><g><circle cx="25631.2" cy="31155.4" r="486.926" style="fill:#fcfae3"/><path d="M25631.2,30506.1c358.323,-0 649.235,290.912 649.235,649.235c-0,358.322 -290.912,649.235 -649.235,649.235c-358.323,-0 -649.235,-290.913 -649.235,-649.235c-0,-358.323 290.912,-649.235 649.235,-649.235Zm-0,162.308c268.742,0 486.926,218.185 486.926,486.927c0,268.742 -218.184,486.926 -486.926,486.926c-268.742,-0 -486.926,-218.184 -486.926,-486.926c-0,-268.742 218.184,-486.927 486.926,-486.927Z" style="fill:#ebda3d"/><circle cx="25631.2" cy="31155.4" r="348.223" style="fill:#ebda3d"/></g><g><circle cx="25631.2" cy="19761.1" r="486.926" style="fill:#fcfae3"/><path d="M25631.2,19111.9c358.323,-0 649.235,290.912 649.235,649.235c-0,358.322 -290.912,649.235 -649.235,649.235c-358.323,-0 -649.235,-290.913 -649.235,-649.235c-0,-358.323 290.912,-649.235 649.235,-649.235Zm-0,162.308c268.742,0 486.926,218.185 486.926,486.927c0,268.742 -218.184,486.926 -486.926,486.926c-268.742,0 -486.926,-218.184 -486.926,-486.926c-0,-268.742 218.184,-486.927 486.926,-486.927Z" style="fill:#ebda3d"/><circle cx="25631.2" cy="19761.1" r="348.223" style="fill:#ebda3d"/></g><g><circle cx="38071.3" cy="25458.2" r="486.926" style="fill:#fcfae3"/><path d="M38071.3,24809c358.322,-0 649.235,290.912 649.235,649.235c-0,358.322 -290.913,649.235 -649.235,649.235c-358.323,-0 -649.235,-290.913 -649.235,-649.235c-0,-358.323 290.912,-649.235 649.235,-649.235Zm-0,162.308c268.742,0 486.926,218.185 486.926,486.927c-0,268.742 -218.184,486.926 -486.926,486.926c-268.742,-0 -486.927,-218.184 -486.927,-486.926c0,-268.742 218.185,-486.927 486.927,-486.927Z" style="fill:#ebda3d"/><circle cx="38071.3" cy="25458.2" r="348.223" style="fill:#ebda3d"/></g><g><circle cx="38071.3" cy="31155.4" r="486.926" style="fill:#fcfae3"/><path d="M38071.3,30506.1c358.322,-0 649.235,290.912 649.235,649.235c-0,358.322 -290.913,649.235 -649.235,649.235c-358.323,-0 -649.235,-290.913 -649.235,-649.235c-0,-358.323 290.912,-649.235 649.235,-649.235Zm-0,162.308c268.742,0 486.926,218.185 486.926,486.927c-0,268.742 -218.184,486.926 -486.926,486.926c-268.742,-0 -486.927,-218.184 -486.927,-486.926c0,-268.742 218.185,-486.927 486.927,-486.927Z" style="fill:#ebda3d"/><circle cx="38071.3" cy="31155.4" r="348.223" style="fill:#ebda3d"/></g><g><circle cx="38071.3" cy="19761.1" r="486.926" style="fill:#fcfae3"/><path d="M38071.3,19111.9c358.322,-0 649.235,290.912 649.235,649.235c-0,358.322 -290.913,649.235 -649.235,649.235c-358.323,-0 -649.235,-290.913 -649.235,-649.235c-0,-358.323 290.912,-649.235 649.235,-649.235Zm-0,162.308c268.742,0 486.926,218.185 486.926,486.927c-0,268.742 -218.184,486.926 -486.926,486.926c-268.742,0 -486.927,-218.184 -486.927,-486.926c0,-268.742 218.185,-486.927 486.927,-486.927Z" style="fill:#ebda3d"/><circle cx="38071.3" cy="19761.1" r="348.223" style="fill:#ebda3d"/></g></g><g id="Hints"><g><rect width="7837.12" height="2993.5" x="65267" y="9084.12" style="fill:#fbe3e0"/><g><text x="16578.5" y="12823.6" style="font-family:'Lato-Bold','Lato',sans-serif;font-weight:700;font-size:106.667px;fill:#ec3c56" transform="matrix(3.125,0,0,3.125,13922.8,-30200.5)">In domain model is ﬁrst time where we are</text><text x="16578.5" y="12951.6" style="font-family:'Lato-Bold','Lato',sans-serif;font-weight:700;font-size:106.667px;fill:#ec3c56" transform="matrix(3.125,0,0,3.125,13922.8,-30200.5)">able to reach Data la<tspan x="17548.8 17604" y="12951.6 12951.6">ye</tspan>r for giv<tspan x="18026.6" y="12951.6">e</tspan>n</text><text x="16578.5" y="13079.6" style="font-family:'Lato-Bold','Lato',sans-serif;font-weight:700;font-size:106.667px;fill:#ec3c56" transform="matrix(3.125,0,0,3.125,13922.8,-30200.5)">functionality<tspan x="17184.1" y="13079.6">.</tspan> Repository e<tspan x="17828.9" y="13079.6">x</tspan>poses interface</text><text x="16578.5" y="13207.6" style="font-family:'Lato-Bold','Lato',sans-serif;font-weight:700;font-size:106.667px;fill:#ec3c56" transform="matrix(3.125,0,0,3.125,13922.8,-30200.5)">through which we can perform speciﬁc</text><text x="16578.5" y="13335.6" style="font-family:'Lato-Bold','Lato',sans-serif;font-weight:700;font-size:106.667px;fill:#ec3c56" transform="matrix(3.125,0,0,3.125,13922.8,-30200.5)">actions.</text></g></g><g><rect width="7837.12" height="2993.5" x="41520.4" y="13288.1" style="fill:#faf6d4"/><g><text x="16578.5" y="12823.6" style="font-family:'Lato-Bold','Lato',sans-serif;font-weight:700;font-size:106.667px;fill:#dfd151" transform="matrix(3.125,0,0,3.125,-9823.78,-25830.5)">Repository ( as deﬁnition of abstr<tspan x="18149.2" y="12823.6">a</tspan>ction is</text><text x="16578.5" y="12951.6" style="font-family:'Lato-Bold','Lato',sans-serif;font-weight:700;font-size:106.667px;fill:#dfd151" transform="matrix(3.125,0,0,3.125,-9823.78,-25830.5)">within this la<tspan x="17184.7 17239.9" y="12951.6 12951.6">ye</tspan>r ) returns domain model</text><text x="16578.5" y="13079.6" style="font-family:'Lato-Bold','Lato',sans-serif;font-weight:700;font-size:106.667px;fill:#dfd151" transform="matrix(3.125,0,0,3.125,-9823.78,-25830.5)">through mapper<tspan x="17341.4" y="13079.6">.</tspan> Interface deﬁnes all possible</text><text x="16578.5" y="13207.6" style="font-family:'Lato-Bold','Lato',sans-serif;font-weight:700;font-size:106.667px;fill:#dfd151" transform="matrix(3.125,0,0,3.125,-9823.78,-25830.5)">methods related to speciﬁc data source.</text></g></g><g><rect width="7837.12" height="2993.5" x="34130.4" y="34945.4" style="fill:#faf6d4"/><g><text x="16578.5" y="12823.6" style="font-family:'Lato-Bold','Lato',sans-serif;font-weight:700;font-size:106.667px;fill:#dfd151" transform="matrix(3.125,0,0,3.125,-17213.8,-4166.91)">Scenario, Use Case, Inter<tspan x="17749.7" y="12823.6">a</tspan>ctor contains</text><text x="16578.5" y="12951.6" style="font-family:'Lato-Bold','Lato',sans-serif;font-weight:700;font-size:106.667px;fill:#dfd151" transform="matrix(3.125,0,0,3.125,-17213.8,-4166.91)">business logic related to speciﬁc user beha<tspan x="18579.7" y="12951.6">v</tspan>ior<tspan x="18762.5" y="12951.6">.</tspan></text><text x="16578.5" y="13079.6" style="font-family:'Lato-Bold','Lato',sans-serif;font-weight:700;font-size:106.667px;fill:#dfd151" transform="matrix(3.125,0,0,3.125,-17213.8,-4166.91)">Around those patterns we build whole logic in</text><text x="16578.5" y="13207.6" style="font-family:'Lato-Bold','Lato',sans-serif;font-weight:700;font-size:106.667px;fill:#dfd151" transform="matrix(3.125,0,0,3.125,-17213.8,-4166.91)">a project.</text></g></g><g><rect width="7837.12" height="2993.5" x="9931.84" y="13430" style="fill:#faf6d4"/><g><text x="16578.5" y="12823.6" style="font-family:'Lato-Bold','Lato',sans-serif;font-weight:700;font-size:106.667px;fill:#dfd151" transform="matrix(3.125,0,0,3.125,-41412.3,-25854.7)">Domain la<tspan x="17057.5 17112.7" y="12823.6 12823.6">ye</tspan>r is deﬁned b<tspan x="17769.9" y="12823.6">y</tspan> few design patterns</text><text x="16578.5" y="12951.6" style="font-family:'Lato-Bold','Lato',sans-serif;font-weight:700;font-size:106.667px;fill:#dfd151" transform="matrix(3.125,0,0,3.125,-41412.3,-25854.7)">Scenario, Use Case, Inter<tspan x="17749.7" y="12951.6">a</tspan>ctor and Repository<tspan x="18738.9" y="12951.6">.</tspan></text><text x="16578.5" y="13079.6" style="font-family:'Lato-Bold','Lato',sans-serif;font-weight:700;font-size:106.667px;fill:#dfd151" transform="matrix(3.125,0,0,3.125,-41412.3,-25854.7)">Here y<tspan x="16892.5" y="13079.6">o</tspan>u can ﬁnd business logic and deﬁnition</text><text x="16578.5" y="13207.6" style="font-family:'Lato-Bold','Lato',sans-serif;font-weight:700;font-size:106.667px;fill:#dfd151" transform="matrix(3.125,0,0,3.125,-41412.3,-25854.7)">of abstr<tspan x="16943.7" y="13207.6">a</tspan>ction when it comes to repository (</text><text x="16578.5" y="13335.6" style="font-family:'Lato-Bold','Lato',sans-serif;font-weight:700;font-size:106.667px;fill:#dfd151" transform="matrix(3.125,0,0,3.125,-41412.3,-25854.7)">not implementation itself ).</text></g></g></g></g></svg>