<svg xmlns="http://www.w3.org/2000/svg" xmlns:xlink="http://www.w3.org/1999/xlink" width="100%" height="100%" version="1.1" viewBox="0 0 78513 50917" xml:space="preserve" style="fill-rule:evenodd;clip-rule:evenodd;stroke-linecap:round;stroke-linejoin:round;stroke-miterlimit:1.5"><g id="Clean-Architecture-Flow"><g id="Layers"><g id="Data-Layer"><path d="M72307.8,49460.2l-16967.2,0l0,-48010.6l16967.2,0l-0,48010.6Z" style="fill:#fef3f3"/><rect width="16084.4" height="48017.3" x="39256.2" y="1442.96" style="fill:#fcfae3"/><path d="M42252.9,33147.4l0,-12714.6l-2996.66,0" style="fill:none;stroke:#ebda3d;stroke-width:125px"/><rect width="16967.2" height="48017.3" x="6204.61" y="1442.96" style="fill:#ebf7fd"/><rect width="16084.4" height="23920.9" x="23171.8" y="1442.96" style="fill:#e3f2fc"/><path d="M44908.5,15183.3l4824.93,0l0,20549.9l-4824.93,0l-0,-20549.9Z" style="fill:#fdfbec;stroke:#635128;stroke-width:4.17px"/><path d="M35005.3,23631.2l-6452.72,0l-0,-20455.5l6452.72,-0l0,20455.5Z" style="fill:#eff8fd;stroke:#cee8f8;stroke-width:27.04px;stroke-linecap:square"/><g><path d="M64307.4,35733.2l-4824.93,0l0,-20549.9l4824.93,0l-0,20549.9Z" style="fill:#fef7f7;stroke:#b91717;stroke-width:4.17px"/><g id="Repository-Logic"><g><text x="61461.1" y="20630" style="font-family:'Lato-Bold','Lato',sans-serif;font-weight:700;font-size:1200px;fill:#fbd2d2" transform="matrix(-2.43817e-16,1,-0.999999,-1.53361e-16,82091.1,-40831.1)">FUNCTIONALITY</text></g></g><g id="Repository-Logic1"><g><text x="47754.8" y="29947.7" style="font-family:'Lato-Bold','Lato',sans-serif;font-weight:700;font-size:1200px;fill:#f5e5a4" transform="matrix(-1.00692e-16,-1,0.999999,-1.91148e-16,17807,77702.5)">DOMAIN L<tspan x="53667.2" y="29947.7">O</tspan>GIC</text></g></g></g><rect width="16084.4" height="24096.4" x="23171.8" y="25363.9" style="fill:#e8fce3"/><path d="M35005.3,47639.8l-6452.72,0l-0,-20455.5l6452.72,0l0,20455.5Z" style="fill:#eefdea;stroke:#cef8d9;stroke-width:27.04px;stroke-linecap:square"/><g id="Repository-Logic2"><g><text x="32212.8" y="42687.6" style="font-family:'Lato-Bold','Lato',sans-serif;font-weight:700;font-size:1200px;fill:#bef7c1" transform="matrix(-1.00692e-16,-1,0.999999,-1.91148e-16,-10474.8,74900.3)">D<tspan x="33079.2 33843 34468.8" y="42687.6 42687.6 42687.6">ATA</tspan> NAMESP<tspan x="40415.4 41236.8" y="42687.6 42687.6">AC</tspan>E</text></g><g><text x="32212.8" y="16766.1" style="font-family:'Lato-Bold','Lato',sans-serif;font-weight:700;font-size:1200px;fill:#bee1f7" transform="matrix(-1.00692e-16,-1,0.999999,-1.91148e-16,15446.6,48978.9)">PRESENTER</text></g></g><g><text x="67129.3" y="18804.5" style="font-family:'Lato-Bold','Lato',sans-serif;font-weight:700;font-size:5000px;fill:#fce1e1" transform="matrix(3.01373e-17,1,-1,4.822e-17,85933.8,-48324.9)">D<tspan x="70739.3 73921.8 76529.3" y="18804.5 18804.5 18804.5">ATA</tspan></text></g><text x="40203.4" y="5104.59" style="font-family:'Lato-Bold','Lato',sans-serif;font-weight:700;font-size:3333.33px;fill:#f8eec5">DOMAIN</text><g><text x="11384.4" y="27994.1" style="font-family:'Lato-Bold','Lato',sans-serif;font-weight:700;font-size:5000px;fill:#dfeff8" transform="matrix(9.23273e-17,-1,1,7.42446e-17,-16609.7,39378.5)">UI</text></g><g><text x="26562.4" y="22584" style="font-family:'Lato-Bold','Lato',sans-serif;font-weight:700;font-size:2500px;fill:#d8ebf6" transform="matrix(9.23273e-17,-1,1,7.42446e-17,3978.38,49146.5)">PRESENT<tspan x="37159.9 38751.2" y="22584 22584">AT</tspan>ION</text></g><g><text x="26562.4" y="44827.1" style="font-family:'Lato-Bold','Lato',sans-serif;font-weight:700;font-size:2500px;fill:#c9f8be" transform="matrix(9.23273e-17,-1,1,7.42446e-17,-18264.6,71389.5)">D<tspan x="28367.4 29958.7 31262.4" y="44827.1 44827.1 44827.1">ATA</tspan> ST<tspan x="36251.2" y="44827.1">O</tspan>RE</text></g></g><g id="DI"><g><rect width="69015.2" height="1455.99" x="4748.62" y="49460.5" style="fill:#c8d2e6"/><path d="M6204.61,49460.2l-1455.99,0l-0,-48010.7l1455.99,0l0,48010.7Z" style="fill:#c8d2e6"/><path d="M73763.8,49460.2l-1455.99,0l-0,-48010.7l1455.99,0l-0,48010.7Z" style="fill:#c8d2e6"/><g><text x="38259.2" y="50420.6" style="font-family:'Lato-Bold','Lato',sans-serif;font-weight:700;font-size:668.217px;fill:#fff" transform="matrix(1,0,0,0.935325,0,3260.94)">DEPENDENCY INJECTION</text></g></g><g><rect width="69015.2" height="1455.99" x="4748.62" y="0" style="fill:#c8d2e6"/><g><text x="37481.7" y="960.185" style="font-family:'Lato-Bold','Lato',sans-serif;font-weight:700;font-size:668.75px;fill:#fff" transform="matrix(1,0,0,0.934582,0,62.813)">DEPENDENCY INJECTION</text></g></g></g></g><g><path d="M65710.9,25458.2l933.399,-0" style="fill:none;stroke:#ec3c56;stroke-width:125px"/><path d="M64307.4,17765.9l1403.55,-0l0,15381.5l-1403.55,-0" style="fill:none;stroke:#ec3c56;stroke-width:125px"/></g><g id="Domain-Layer"><rect width="4585.94" height="48016.1" x=".078" y="1449.58" style="fill:#fcfae3"/><g><text x="3498.05" y="32553.2" style="font-family:'Lato-Bold','Lato',sans-serif;font-weight:700;font-size:3333.33px;fill:#f4e299" transform="matrix(9.23273e-17,-1,1,7.42446e-17,-29055.2,36051.3)">DOMAIN</text></g></g><g id="Data-Source-Layer"><rect width="4748.62" height="50916.4" x="73763.8" y="0" style="fill:#f27688"/><g><text x="75686.2" y="12977.5" style="font-family:'Lato-Bold','Lato',sans-serif;font-weight:700;font-size:1250px;fill:#fce3e7" transform="matrix(6.13948e-17,1,-0.999999,6.10694e-17,88663.8,-62708.7)">REMO<tspan x="79333.7" y="12977.5">T</tspan>E API / SERVICES / L<tspan x="91333.8" y="12977.5">O</tspan>CAL ST<tspan x="96311.9" y="12977.5">O</tspan>RA<tspan x="98985.6" y="12977.5">G</tspan>E</text></g></g><g id="External-Internal-User"><rect width="4748.62" height="50916.4" x="0" y="0" style="fill:#525a6c"/><g><g><text x="2826.19" y="27372.6" style="font-family:'Lato-Bold','Lato',sans-serif;font-weight:700;font-size:1250px;fill:#e8eaee" transform="matrix(6.10698e-17,-1,0.999999,6.13951e-17,-24546.3,30198.7)">USERS</text></g></g></g><path d="M13750.1,7533.71l7094.3,0l-0,35660.4l-7094.3,-0l0,-35660.4Z" style="fill:#f3f2fe;fill-opacity:.5;stroke:#525a6c;stroke-width:29.55px;stroke-linecap:square;stroke-dasharray:146.16,146.16,0,0"/><rect width="2616.32" height="29589.6" x="17014.2" y="10569.1" style="fill:#eefdfd;stroke:#a1f1f1;stroke-width:5.11px;stroke-linecap:square"/><g><text x="18756.2" y="30970.6" style="font-family:'Lato-Bold','Lato',sans-serif;font-weight:700;font-size:1200px;fill:#c3f4f4" transform="matrix(-1.00692e-16,-1,0.999999,-1.91148e-16,-12214.4,49726.8)">PR<tspan x="20263.4" y="30970.6">O</tspan>DUCT FEA<tspan x="26868.2" y="30970.6">T</tspan>URE</text></g><g><text x="16169.4" y="33633.5" style="font-family:'Lato-Bold','Lato',sans-serif;font-weight:700;font-size:1666.67px;fill:#91a6c8" transform="matrix(-1.00692e-16,-1,0.999999,-1.91148e-16,-17464.1,49802.9)">BOUNDED CONTEXT</text></g><g><g><text x="8625.17" y="23413.1" style="font-family:'Lato-Regular','Lato',sans-serif;font-size:1666.67px;fill:#3f4e6c">&lt;/&gt;</text><text x="7769.4" y="24640.8" style="font-family:'Lato-Bold','Lato',sans-serif;font-weight:700;font-size:600px;fill:#3f4e6c">FRAMEWORKS</text></g><g><text x="9391.56" y="28787.4" style="font-family:'Lato-Bold','Lato',sans-serif;font-weight:700;font-size:600px;fill:#3f4e6c">SSR</text><g><rect width="2176.52" height="666.557" x="8839.05" y="27346.9" style="fill:#3f4e6c"/><g><circle cx="10491.9" cy="27680.2" r="74.816" style="fill:#f2fdef"/><circle cx="10725.1" cy="27680.2" r="74.816" style="fill:#f2fdef"/><circle cx="10258.7" cy="27680.2" r="74.816" style="fill:#f2fdef"/><path d="M9835.98,27642.8l-0,74.816c-0,20.646 -16.762,37.408 -37.408,37.408l-758.225,0c-20.647,0 -37.409,-16.762 -37.409,-37.408l0,-74.816c0,-20.647 16.762,-37.409 37.409,-37.409l758.225,0c20.646,0 37.408,16.762 37.408,37.409Z" style="fill:#f2fdef"/></g><rect width="2176.52" height="666.557" x="8839.05" y="26560" style="fill:#3f4e6c"/><g><circle cx="10491.9" cy="26893.3" r="74.816" style="fill:#f2fdef"/><circle cx="10725.1" cy="26893.3" r="74.816" style="fill:#f2fdef"/><circle cx="10258.7" cy="26893.3" r="74.816" style="fill:#f2fdef"/><path d="M9835.98,26855.9l-0,74.816c-0,20.647 -16.762,37.409 -37.408,37.409l-758.225,-0c-20.647,-0 -37.409,-16.762 -37.409,-37.409l0,-74.816c0,-20.646 16.762,-37.408 37.409,-37.408l758.225,-0c20.646,-0 37.408,16.762 37.408,37.408Z" style="fill:#f2fdef"/></g><rect width="2176.52" height="666.557" x="8839.05" y="25773.1" style="fill:#3f4e6c"/><g><circle cx="10491.9" cy="26106.4" r="74.816" style="fill:#f2fdef"/><circle cx="10725.1" cy="26106.4" r="74.816" style="fill:#f2fdef"/><circle cx="10258.7" cy="26106.4" r="74.816" style="fill:#f2fdef"/><path d="M9835.98,26069l-0,74.816c-0,20.646 -16.762,37.408 -37.408,37.408l-758.225,0c-20.647,0 -37.409,-16.762 -37.409,-37.408l0,-74.816c0,-20.646 16.762,-37.409 37.409,-37.409l758.225,0c20.646,0 37.408,16.763 37.408,37.409Z" style="fill:#f2fdef"/></g></g></g><g><circle cx="9472.32" cy="20795" r="129.045" style="fill:#3f4e6c"/><circle cx="9927.3" cy="20795" r="129.045" style="fill:#3f4e6c"/><circle cx="10382.3" cy="20795" r="129.045" style="fill:#3f4e6c"/></g><g><circle cx="9472.32" cy="30121.4" r="129.045" style="fill:#3f4e6c"/><circle cx="9927.3" cy="30121.4" r="129.045" style="fill:#3f4e6c"/><circle cx="10382.3" cy="30121.4" r="129.045" style="fill:#3f4e6c"/></g></g><g><circle cx="67929.5" cy="32746.3" r="129.053" style="fill:#ec3c56"/><circle cx="68384.5" cy="32746.3" r="129.053" style="fill:#ec3c56"/><circle cx="68839.5" cy="32746.3" r="129.053" style="fill:#ec3c56"/></g><g><circle cx="67929.5" cy="18235.2" r="129.053" style="fill:#ec3c56"/><circle cx="68384.5" cy="18235.2" r="129.053" style="fill:#ec3c56"/><circle cx="68839.5" cy="18235.2" r="129.053" style="fill:#ec3c56"/></g><g><g><rect width="1681.94" height="515.092" x="67543.5" y="28757.7" style="fill:#ec3c56"/><rect width="1681.94" height="515.092" x="67543.5" y="29365.8" style="fill:#ec3c56"/><rect width="1681.94" height="515.092" x="67543.5" y="29973.9" style="fill:#ec3c56"/></g><text x="67457.3" y="31027.7" style="font-family:'Lato-Bold','Lato',sans-serif;font-weight:700;font-size:400px;fill:#ec3c56">ST<tspan x="67894.3" y="31027.7">O</tspan>RA<tspan x="68749.9" y="31027.7">G</tspan>E</text></g><g><path d="M68500,24184.1l38.049,185.239c73.638,11.268 145.811,30.607 215.217,57.667l125.572,-141.397c70.268,31.949 137.273,70.635 200.075,115.514l-59.667,179.446c58.138,46.578 110.972,99.412 157.55,157.55l179.446,-59.667c44.879,62.802 83.565,129.807 115.514,200.075l-141.397,125.572c27.06,69.406 46.399,141.579 57.667,215.217l185.239,38.05c7.466,76.828 7.466,154.199 0,231.027l-185.239,38.049c-11.268,73.638 -30.607,145.812 -57.667,215.218l141.397,125.571c-31.949,70.268 -70.635,137.273 -115.514,200.075l-179.446,-59.667c-46.578,58.138 -99.412,110.973 -157.55,157.55l59.667,179.446c-62.802,44.88 -129.807,83.565 -200.075,115.514l-125.572,-141.397c-69.406,27.06 -141.579,46.399 -215.217,57.667l-38.049,185.239c-76.829,7.466 -154.199,7.466 -231.028,0l-38.049,-185.239c-73.638,-11.268 -145.811,-30.607 -215.217,-57.667l-125.572,141.397c-70.268,-31.949 -137.273,-70.634 -200.075,-115.514l59.667,-179.446c-58.138,-46.577 -110.972,-99.412 -157.55,-157.55l-179.446,59.667c-44.879,-62.802 -83.565,-129.807 -115.514,-200.075l141.397,-125.571c-27.06,-69.406 -46.399,-141.58 -57.667,-215.218l-185.239,-38.049c-7.466,-76.828 -7.466,-154.199 -0,-231.027l185.239,-38.05c11.268,-73.638 30.607,-145.811 57.667,-215.217l-141.397,-125.572c31.949,-70.268 70.635,-137.273 115.514,-200.075l179.446,59.667c46.578,-58.138 99.412,-110.972 157.55,-157.55l-59.667,-179.446c62.802,-44.879 129.807,-83.565 200.075,-115.514l125.572,141.397c69.406,-27.06 141.579,-46.399 215.217,-57.667l38.049,-185.239c76.829,-7.465 154.199,-7.465 231.028,-0Zm-115.514,485.751c388.012,-0 703.028,315.016 703.028,703.028c0,388.012 -315.016,703.028 -703.028,703.028c-388.012,0 -703.028,-315.016 -703.028,-703.028c-0,-388.012 315.016,-703.028 703.028,-703.028Z" style="fill:#ec3c56"/><text x="68035" y="25509.2" style="font-family:'Lato-Bold','Lato',sans-serif;font-weight:700;font-size:400px;fill:#ec3c56">API</text></g><g><path d="M67947.1,20113.7c29.152,-140.237 215.146,-251.877 437.344,-251.877c222.198,0 408.192,111.64 437.344,251.877c152.038,-94.405 397.773,-96.838 567.987,2.424c170.213,99.261 209.437,267.87 102.064,388.32c203.782,-4.399 394.277,103.513 432.861,255.59c38.584,152.077 -87.316,298.761 -280.973,343.066c160.175,87.664 206.294,255.428 95.195,389.162c-111.099,133.734 -343.212,189.859 -532.539,137.286c41.62,138.709 -78.216,287.826 -287.014,340.642c-208.798,52.816 -438.516,-7.881 -534.925,-132.731c-96.409,124.85 -326.127,185.547 -534.925,132.731c-208.798,-52.816 -328.634,-201.933 -287.014,-340.642c-189.327,52.573 -421.44,-3.552 -532.539,-137.286c-111.099,-133.734 -64.98,-301.498 95.195,-389.162c-193.657,-44.305 -319.557,-190.989 -280.973,-343.066c38.584,-152.077 229.079,-259.989 432.861,-255.59c-107.373,-120.45 -68.149,-289.059 102.064,-388.32c170.214,-99.262 415.949,-96.829 567.987,-2.424Z" style="fill:#ec3c56"/><text x="67249.2" y="21051" style="font-family:'Lato-Bold','Lato',sans-serif;font-weight:700;font-size:300px;fill:#fef3f9">INTEGRA<tspan x="68524.8" y="21051">T</tspan>IONS</text></g><path d="M55358.1,33142l4141.85,-0" style="fill:none;stroke:#ec3c56;stroke-width:125px"/><path d="M55358.1,17757.4l4141.85,-0" style="fill:none;stroke:#ec3c56;stroke-width:125px"/><path d="M49733.4,33147.4l5607.19,-0" style="fill:none;stroke:#ebda3d;stroke-width:125px"/><path d="M35005.3,5919.57l4250.9,-0" style="fill:none;stroke:#40a9eb;stroke-width:125px"/><path d="M35005.3,20432.8l4250.9,0" style="fill:none;stroke:#40a9eb;stroke-width:125px"/><path d="M23171.8,5919.57l5380.79,-0" style="fill:none;stroke:#40a9eb;stroke-width:125px"/><path d="M23171.8,20432.8l5380.79,0" style="fill:none;stroke:#40a9eb;stroke-width:125px"/><path d="M11801.5,25458.2l924.012,-0" style="fill:none;stroke:#7689ac;stroke-width:125px"/><path d="M33584.5,23631.2l0,1732.7" style="fill:none;stroke:#40a9eb;stroke-width:125px"/><path d="M29973.4,23631.2l-0,1732.7" style="fill:none;stroke:#40a9eb;stroke-width:125px"/><path d="M33584.5,25451.6l0,1732.7" style="fill:none;stroke:#61ec3e;stroke-width:125px"/><path d="M29973.4,25451.6l-0,1732.7" style="fill:none;stroke:#61ec3e;stroke-width:125px"/><path d="M39256.2,5919.57l2998.41,-0l-0,11846.3l2653.87,-0" style="fill:none;stroke:#ebda3d;stroke-width:125px"/><path d="M44908.5,33147.4l-2655.62,-0" style="fill:none;stroke:#ebda3d;stroke-width:125px"/><path d="M20883.5,15437.7l1310.7,-0l-0,4995.06l977.613,0" style="fill:none;stroke:#3be7ec;stroke-width:125px"/><path d="M23171.8,5919.57l-980.008,-0l2.395,4822.3l-1310.7,0" style="fill:none;stroke:#3be7ec;stroke-width:125px"/><path d="M49733.4,17765.9l5607.19,-0" style="fill:none;stroke:#ebda3d;stroke-width:125px"/><path d="M13750.1,10741.9l-1024.63,0l0,29244l1024.63,-0" style="fill:none;stroke:#7689ac;stroke-width:125px"/><g><circle cx="55358.1" cy="33150.5" r="360.097" style="fill:#fce3e7"/><path d="M55358.1,32670.4c264.99,-0 480.129,215.138 480.129,480.129c-0,264.99 -215.139,480.129 -480.129,480.129c-264.991,0 -480.13,-215.139 -480.13,-480.129c0,-264.991 215.139,-480.129 480.13,-480.129Zm-0,120.032c198.743,-0 360.097,161.354 360.097,360.097c-0,198.743 -161.354,360.097 -360.097,360.097c-198.743,-0 -360.097,-161.354 -360.097,-360.097c-0,-198.743 161.354,-360.097 360.097,-360.097Z" style="fill:#ec3c56"/><circle cx="55358.1" cy="33150.5" r="257.522" style="fill:#ec3c56"/></g><g><circle cx="59482.5" cy="33147.4" r="360.097" style="fill:#fce3e7"/><path d="M59482.5,32667.3c264.991,0 480.13,215.139 480.13,480.13c-0,264.99 -215.139,480.129 -480.13,480.129c-264.99,-0 -480.129,-215.139 -480.129,-480.129c-0,-264.991 215.139,-480.13 480.129,-480.13Zm0,120.033c198.743,-0 360.097,161.354 360.097,360.097c0,198.743 -161.354,360.097 -360.097,360.097c-198.743,-0 -360.097,-161.354 -360.097,-360.097c0,-198.743 161.354,-360.097 360.097,-360.097Z" style="fill:#ec3c56"/><circle cx="59482.5" cy="33147.4" r="257.522" style="fill:#ec3c56"/></g><g><circle cx="55358.1" cy="17765.9" r="360.097" style="fill:#fce3e7"/><path d="M55358.1,17285.8c264.99,0 480.129,215.139 480.129,480.13c-0,264.99 -215.139,480.129 -480.129,480.129c-264.991,-0 -480.13,-215.139 -480.13,-480.129c0,-264.991 215.139,-480.13 480.13,-480.13Zm-0,120.033c198.743,-0 360.097,161.354 360.097,360.097c-0,198.742 -161.354,360.097 -360.097,360.097c-198.743,-0 -360.097,-161.355 -360.097,-360.097c-0,-198.743 161.354,-360.097 360.097,-360.097Z" style="fill:#ec3c56"/><circle cx="55358.1" cy="17765.9" r="257.522" style="fill:#ec3c56"/></g><g><circle cx="59482.5" cy="17765.9" r="360.097" style="fill:#fce3e7"/><path d="M59482.5,17285.8c264.991,0 480.13,215.139 480.13,480.13c-0,264.99 -215.139,480.129 -480.13,480.129c-264.99,-0 -480.129,-215.139 -480.129,-480.129c-0,-264.991 215.139,-480.13 480.129,-480.13Zm0,120.033c198.743,-0 360.097,161.354 360.097,360.097c0,198.742 -161.354,360.097 -360.097,360.097c-198.743,-0 -360.097,-161.355 -360.097,-360.097c0,-198.743 161.354,-360.097 360.097,-360.097Z" style="fill:#ec3c56"/><circle cx="59482.5" cy="17765.9" r="257.522" style="fill:#ec3c56"/></g><g><circle cx="64307.4" cy="17765.9" r="360.097" style="fill:#fce3e7"/><path d="M64307.4,17285.8c264.99,0 480.129,215.139 480.129,480.13c-0,264.99 -215.139,480.129 -480.129,480.129c-264.991,-0 -480.13,-215.139 -480.13,-480.129c0,-264.991 215.139,-480.13 480.13,-480.13Zm-0,120.033c198.743,-0 360.097,161.354 360.097,360.097c-0,198.742 -161.354,360.097 -360.097,360.097c-198.743,-0 -360.097,-161.355 -360.097,-360.097c-0,-198.743 161.354,-360.097 360.097,-360.097Z" style="fill:#ec3c56"/><circle cx="64307.4" cy="17765.9" r="257.522" style="fill:#ec3c56"/></g><g><circle cx="64307.4" cy="33147.4" r="360.097" style="fill:#fce3e7"/><path d="M64307.4,32667.3c264.99,0 480.129,215.139 480.129,480.13c-0,264.99 -215.139,480.129 -480.129,480.129c-264.991,-0 -480.13,-215.139 -480.13,-480.129c0,-264.991 215.139,-480.13 480.13,-480.13Zm-0,120.033c198.743,-0 360.097,161.354 360.097,360.097c-0,198.743 -161.354,360.097 -360.097,360.097c-198.743,-0 -360.097,-161.354 -360.097,-360.097c-0,-198.743 161.354,-360.097 360.097,-360.097Z" style="fill:#ec3c56"/><circle cx="64307.4" cy="33147.4" r="257.522" style="fill:#ec3c56"/></g><g><circle cx="49733.4" cy="33147.4" r="360.097" style="fill:#fcfae3"/><path d="M49733.4,32667.3c264.991,0 480.13,215.139 480.13,480.13c-0,264.99 -215.139,480.129 -480.13,480.129c-264.99,-0 -480.129,-215.139 -480.129,-480.129c-0,-264.991 215.139,-480.13 480.129,-480.13Zm0,120.033c198.743,-0 360.097,161.354 360.097,360.097c0,198.743 -161.354,360.097 -360.097,360.097c-198.743,-0 -360.097,-161.354 -360.097,-360.097c0,-198.743 161.354,-360.097 360.097,-360.097Z" style="fill:#ebda3d"/><circle cx="49733.4" cy="33147.4" r="257.522" style="fill:#ebda3d"/></g><g><circle cx="49733.4" cy="17765.9" r="360.097" style="fill:#fcfae3"/><path d="M49733.4,17285.8c264.991,0 480.13,215.139 480.13,480.13c-0,264.99 -215.139,480.129 -480.13,480.129c-264.99,-0 -480.129,-215.139 -480.129,-480.129c-0,-264.991 215.139,-480.13 480.129,-480.13Zm0,120.033c198.743,-0 360.097,161.354 360.097,360.097c0,198.742 -161.354,360.097 -360.097,360.097c-198.743,-0 -360.097,-161.355 -360.097,-360.097c0,-198.743 161.354,-360.097 360.097,-360.097Z" style="fill:#ebda3d"/><circle cx="49733.4" cy="17765.9" r="257.522" style="fill:#ebda3d"/></g><g><circle cx="44908.5" cy="17765.9" r="360.097" style="fill:#fcfae3"/><path d="M44908.5,17285.8c264.99,0 480.129,215.139 480.129,480.13c0,264.99 -215.139,480.129 -480.129,480.129c-264.991,-0 -480.13,-215.139 -480.13,-480.129c0,-264.991 215.139,-480.13 480.13,-480.13Zm-0,120.033c198.743,-0 360.097,161.354 360.097,360.097c-0,198.742 -161.354,360.097 -360.097,360.097c-198.743,-0 -360.097,-161.355 -360.097,-360.097c-0,-198.743 161.354,-360.097 360.097,-360.097Z" style="fill:#ebda3d"/><circle cx="44908.5" cy="17765.9" r="257.522" style="fill:#ebda3d"/></g><g><circle cx="44908.5" cy="33147.4" r="360.097" style="fill:#fcfae3"/><path d="M44908.5,32667.3c264.99,0 480.129,215.139 480.129,480.13c0,264.99 -215.139,480.129 -480.129,480.129c-264.991,-0 -480.13,-215.139 -480.13,-480.129c0,-264.991 215.139,-480.13 480.13,-480.13Zm-0,120.033c198.743,-0 360.097,161.354 360.097,360.097c-0,198.743 -161.354,360.097 -360.097,360.097c-198.743,-0 -360.097,-161.354 -360.097,-360.097c-0,-198.743 161.354,-360.097 360.097,-360.097Z" style="fill:#ebda3d"/><circle cx="44908.5" cy="33147.4" r="257.522" style="fill:#ebda3d"/></g><g><circle cx="33584.5" cy="27184.3" r="360.097" style="fill:#e8fce3"/><path d="M33584.5,27664.4c-264.99,0 -480.129,-215.138 -480.129,-480.129c0,-264.991 215.139,-480.129 480.129,-480.129c264.991,-0 480.13,215.138 480.13,480.129c-0,264.991 -215.139,480.129 -480.13,480.129Zm0,-120.032c-198.743,0 -360.097,-161.354 -360.097,-360.097c0,-198.743 161.354,-360.097 360.097,-360.097c198.743,0 360.097,161.354 360.097,360.097c0,198.743 -161.354,360.097 -360.097,360.097Z" style="fill:#61ec3e"/><circle cx="33584.5" cy="27184.3" r="257.522" style="fill:#61ec3e"/></g><g><circle cx="29973.4" cy="27184.3" r="360.097" style="fill:#e8fce3"/><path d="M29973.4,27664.4c-264.991,0 -480.13,-215.138 -480.13,-480.129c0,-264.991 215.139,-480.129 480.13,-480.129c264.99,-0 480.129,215.138 480.129,480.129c-0,264.991 -215.139,480.129 -480.129,480.129Zm-0,-120.032c-198.743,0 -360.097,-161.354 -360.097,-360.097c-0,-198.743 161.354,-360.097 360.097,-360.097c198.743,0 360.097,161.354 360.097,360.097c-0,198.743 -161.354,360.097 -360.097,360.097Z" style="fill:#61ec3e"/><circle cx="29973.4" cy="27184.3" r="257.522" style="fill:#61ec3e"/></g><g><circle cx="20883.5" cy="10741.9" r="360.097" style="fill:#e3fbfc"/><path d="M20883.5,10261.7c264.991,-0 480.13,215.139 480.13,480.129c-0,264.991 -215.139,480.13 -480.13,480.13c-264.99,-0 -480.129,-215.139 -480.129,-480.13c0,-264.99 215.139,-480.129 480.129,-480.129Zm0,120.032c198.743,0 360.097,161.354 360.097,360.097c0,198.743 -161.354,360.097 -360.097,360.097c-198.743,0 -360.097,-161.354 -360.097,-360.097c0,-198.743 161.354,-360.097 360.097,-360.097Z" style="fill:#3be7ec"/><circle cx="20883.5" cy="10741.9" r="257.522" style="fill:#3be7ec"/></g><g><circle cx="20883.5" cy="15437.7" r="360.097" style="fill:#e3fbfc"/><path d="M20883.5,14957.6c264.991,0 480.13,215.139 480.13,480.13c-0,264.99 -215.139,480.129 -480.13,480.129c-264.99,-0 -480.129,-215.139 -480.129,-480.129c0,-264.991 215.139,-480.13 480.129,-480.13Zm0,120.033c198.743,-0 360.097,161.354 360.097,360.097c0,198.743 -161.354,360.097 -360.097,360.097c-198.743,-0 -360.097,-161.354 -360.097,-360.097c0,-198.743 161.354,-360.097 360.097,-360.097Z" style="fill:#3be7ec"/><circle cx="20883.5" cy="15437.7" r="257.522" style="fill:#3be7ec"/></g><g><circle cx="23171.8" cy="5919.57" r="360.097" style="fill:#e3fbfc"/><path d="M23171.8,5439.44c264.99,-0 480.129,215.138 480.129,480.129c0,264.99 -215.139,480.129 -480.129,480.129c-264.991,0 -480.13,-215.139 -480.13,-480.129c0,-264.991 215.139,-480.129 480.13,-480.129Zm-0,120.032c198.743,-0 360.097,161.354 360.097,360.097c-0,198.743 -161.354,360.097 -360.097,360.097c-198.743,-0 -360.097,-161.354 -360.097,-360.097c-0,-198.743 161.354,-360.097 360.097,-360.097Z" style="fill:#3be7ec"/><circle cx="23171.8" cy="5919.57" r="257.522" style="fill:#3be7ec"/></g><g><circle cx="23171.8" cy="20432.8" r="360.097" style="fill:#e3fbfc"/><path d="M23171.8,19952.6c264.99,-0 480.129,215.139 480.129,480.129c0,264.991 -215.139,480.129 -480.129,480.129c-264.991,0 -480.13,-215.138 -480.13,-480.129c0,-264.99 215.139,-480.129 480.13,-480.129Zm-0,120.032c198.743,0 360.097,161.354 360.097,360.097c-0,198.743 -161.354,360.097 -360.097,360.097c-198.743,0 -360.097,-161.354 -360.097,-360.097c-0,-198.743 161.354,-360.097 360.097,-360.097Z" style="fill:#3be7ec"/><circle cx="23171.8" cy="20432.8" r="257.522" style="fill:#3be7ec"/></g><g><circle cx="39256.2" cy="5919.57" r="360.097" style="fill:#e3f2fc"/><path d="M39256.2,5439.44c264.991,-0 480.129,215.138 480.129,480.129c0,264.99 -215.138,480.129 -480.129,480.129c-264.991,0 -480.129,-215.139 -480.129,-480.129c-0,-264.991 215.138,-480.129 480.129,-480.129Zm0,120.032c198.743,-0 360.097,161.354 360.097,360.097c0,198.743 -161.354,360.097 -360.097,360.097c-198.743,-0 -360.097,-161.354 -360.097,-360.097c0,-198.743 161.354,-360.097 360.097,-360.097Z" style="fill:#40a9eb"/><circle cx="39256.2" cy="5919.57" r="257.522" style="fill:#40a9eb"/></g><g><circle cx="35005.3" cy="5919.57" r="360.097" style="fill:#e3f2fc"/><path d="M35005.3,5439.44c264.991,-0 480.129,215.138 480.129,480.129c0,264.99 -215.138,480.129 -480.129,480.129c-264.991,0 -480.129,-215.139 -480.129,-480.129c-0,-264.991 215.138,-480.129 480.129,-480.129Zm0,120.032c198.743,-0 360.097,161.354 360.097,360.097c0,198.743 -161.354,360.097 -360.097,360.097c-198.743,-0 -360.097,-161.354 -360.097,-360.097c0,-198.743 161.354,-360.097 360.097,-360.097Z" style="fill:#40a9eb"/><circle cx="35005.3" cy="5919.57" r="257.522" style="fill:#40a9eb"/></g><g><circle cx="35005.3" cy="20432.8" r="360.097" style="fill:#e3f2fc"/><path d="M35005.3,19952.6c264.991,-0 480.129,215.139 480.129,480.129c0,264.991 -215.138,480.129 -480.129,480.129c-264.991,0 -480.129,-215.138 -480.129,-480.129c-0,-264.99 215.138,-480.129 480.129,-480.129Zm0,120.032c198.743,0 360.097,161.354 360.097,360.097c0,198.743 -161.354,360.097 -360.097,360.097c-198.743,0 -360.097,-161.354 -360.097,-360.097c0,-198.743 161.354,-360.097 360.097,-360.097Z" style="fill:#40a9eb"/><circle cx="35005.3" cy="20432.8" r="257.522" style="fill:#40a9eb"/></g><g><circle cx="39256.2" cy="20432.8" r="360.097" style="fill:#e3f2fc"/><path d="M39256.2,19952.6c264.991,-0 480.129,215.139 480.129,480.129c0,264.991 -215.138,480.129 -480.129,480.129c-264.991,0 -480.129,-215.138 -480.129,-480.129c-0,-264.99 215.138,-480.129 480.129,-480.129Zm0,120.032c198.743,0 360.097,161.354 360.097,360.097c0,198.743 -161.354,360.097 -360.097,360.097c-198.743,0 -360.097,-161.354 -360.097,-360.097c0,-198.743 161.354,-360.097 360.097,-360.097Z" style="fill:#40a9eb"/><circle cx="39256.2" cy="20432.8" r="257.522" style="fill:#40a9eb"/></g><g><circle cx="28590.2" cy="20432.8" r="360.097" style="fill:#e3f2fc"/><path d="M28590.2,19952.6c264.991,-0 480.129,215.139 480.129,480.129c0,264.991 -215.138,480.129 -480.129,480.129c-264.99,0 -480.129,-215.138 -480.129,-480.129c-0,-264.99 215.139,-480.129 480.129,-480.129Zm0,120.032c198.743,0 360.097,161.354 360.097,360.097c0,198.743 -161.354,360.097 -360.097,360.097c-198.743,0 -360.097,-161.354 -360.097,-360.097c0,-198.743 161.354,-360.097 360.097,-360.097Z" style="fill:#40a9eb"/><circle cx="28590.2" cy="20432.8" r="257.522" style="fill:#40a9eb"/></g><g><circle cx="28552.6" cy="5919.57" r="360.097" style="fill:#e3f2fc"/><path d="M28552.6,5439.44c264.99,-0 480.129,215.138 480.129,480.129c0,264.99 -215.139,480.129 -480.129,480.129c-264.991,0 -480.129,-215.139 -480.129,-480.129c-0,-264.991 215.138,-480.129 480.129,-480.129Zm-0,120.032c198.743,-0 360.097,161.354 360.097,360.097c-0,198.743 -161.354,360.097 -360.097,360.097c-198.743,-0 -360.097,-161.354 -360.097,-360.097c-0,-198.743 161.354,-360.097 360.097,-360.097Z" style="fill:#40a9eb"/><circle cx="28552.6" cy="5919.57" r="257.522" style="fill:#40a9eb"/></g><g><circle cx="29973.4" cy="23631.2" r="360.097" style="fill:#e3f2fc"/><path d="M29973.4,23151.1c264.99,-0 480.129,215.138 480.129,480.129c-0,264.991 -215.139,480.129 -480.129,480.129c-264.991,0 -480.13,-215.138 -480.13,-480.129c0,-264.991 215.139,-480.129 480.13,-480.129Zm-0,120.032c198.743,0 360.097,161.354 360.097,360.097c-0,198.743 -161.354,360.097 -360.097,360.097c-198.743,0 -360.097,-161.354 -360.097,-360.097c-0,-198.743 161.354,-360.097 360.097,-360.097Z" style="fill:#40a9eb"/><circle cx="29973.4" cy="23631.2" r="257.522" style="fill:#40a9eb"/></g><g><circle cx="33584.5" cy="25363.9" r="360.097" style="fill:#e3f2fc"/><path d="M33584.5,24883.8c264.991,-0 480.13,215.138 480.13,480.129c-0,264.991 -215.139,480.129 -480.13,480.129c-264.99,0 -480.129,-215.138 -480.129,-480.129c0,-264.991 215.139,-480.129 480.129,-480.129Zm0,120.032c198.743,0 360.097,161.354 360.097,360.097c0,198.743 -161.354,360.097 -360.097,360.097c-198.743,-0 -360.097,-161.354 -360.097,-360.097c0,-198.743 161.354,-360.097 360.097,-360.097Z" style="fill:#40a9eb"/><circle cx="33584.5" cy="25363.9" r="257.522" style="fill:#40a9eb"/></g><g><circle cx="29973.4" cy="25363.9" r="360.097" style="fill:#e3f2fc"/><path d="M29973.4,24883.8c264.99,-0 480.129,215.138 480.129,480.129c-0,264.991 -215.139,480.129 -480.129,480.129c-264.991,0 -480.13,-215.138 -480.13,-480.129c0,-264.991 215.139,-480.129 480.13,-480.129Zm-0,120.032c198.743,0 360.097,161.354 360.097,360.097c-0,198.743 -161.354,360.097 -360.097,360.097c-198.743,-0 -360.097,-161.354 -360.097,-360.097c-0,-198.743 161.354,-360.097 360.097,-360.097Z" style="fill:#40a9eb"/><circle cx="29973.4" cy="25363.9" r="257.522" style="fill:#40a9eb"/></g><g><circle cx="33584.5" cy="23631.2" r="360.097" style="fill:#e3f2fc"/><path d="M33584.5,23151.1c264.991,-0 480.13,215.138 480.13,480.129c-0,264.991 -215.139,480.129 -480.13,480.129c-264.99,0 -480.129,-215.138 -480.129,-480.129c0,-264.991 215.139,-480.129 480.129,-480.129Zm0,120.032c198.743,0 360.097,161.354 360.097,360.097c0,198.743 -161.354,360.097 -360.097,360.097c-198.743,0 -360.097,-161.354 -360.097,-360.097c0,-198.743 161.354,-360.097 360.097,-360.097Z" style="fill:#40a9eb"/><circle cx="33584.5" cy="23631.2" r="257.522" style="fill:#40a9eb"/></g><g><circle cx="13750.1" cy="39985.9" r="360.097" style="fill:#f1f7f0"/><path d="M13750.1,39505.8c264.991,0 480.13,215.139 480.13,480.13c-0,264.99 -215.139,480.129 -480.13,480.129c-264.99,0 -480.129,-215.139 -480.129,-480.129c0,-264.991 215.139,-480.13 480.129,-480.13Zm0,120.033c198.743,-0 360.097,161.354 360.097,360.097c0,198.743 -161.354,360.097 -360.097,360.097c-198.742,-0 -360.097,-161.354 -360.097,-360.097c0,-198.743 161.355,-360.097 360.097,-360.097Z" style="fill:#7689ac"/><circle cx="13750.1" cy="39985.9" r="257.522" style="fill:#7689ac"/></g><g><circle cx="13750.1" cy="10741.9" r="360.097" style="fill:#f1f7f0"/><path d="M13750.1,10261.7c264.991,-0 480.13,215.139 480.13,480.129c-0,264.991 -215.139,480.13 -480.13,480.13c-264.99,-0 -480.129,-215.139 -480.129,-480.13c0,-264.99 215.139,-480.129 480.129,-480.129Zm0,120.032c198.743,0 360.097,161.354 360.097,360.097c0,198.743 -161.354,360.097 -360.097,360.097c-198.742,0 -360.097,-161.354 -360.097,-360.097c0,-198.743 161.355,-360.097 360.097,-360.097Z" style="fill:#7689ac"/><circle cx="13750.1" cy="10741.9" r="257.522" style="fill:#7689ac"/></g><path d="M51890,17041.2l-0,-154.537l1132.08,0l0,-143.498l370.092,220.767l-370.092,220.767l0,-143.499l-1132.08,0Z" style="fill:#72f1d0"/><path d="M25080.3,5131.56l-0,-154.537l1132.08,0l-0,-143.498l370.092,220.767l-370.092,220.767l-0,-143.499l-1132.08,0Z" style="fill:#72f1d0"/><path d="M21568.4,9034.92l-154.537,-0l0,-1132.08l-143.498,-0l220.767,-370.092l220.767,370.092l-143.499,-0l0,1132.08Z" style="fill:#72f1d0"/><path d="M12009.6,18686.3l-154.537,-0l-0,-1132.08l-143.499,0l220.767,-370.092l220.767,370.092l-143.498,0l-0,1132.08Z" style="fill:#72f1d0"/><path d="M12009.6,33077.5l-154.537,-0l-0,-1132.08l-143.499,-0l220.767,-370.092l220.767,370.092l-143.498,-0l-0,1132.08Z" style="fill:#72f1d0"/><path d="M36435,5131.56l0,-154.537l1132.08,0l-0,-143.498l370.092,220.767l-370.092,220.767l-0,-143.499l-1132.08,0Z" style="fill:#72f1d0"/><path d="M43201.4,10103.6l154.537,0l-0,1132.08l143.498,-0l-220.767,370.092l-220.767,-370.092l143.499,-0l-0,-1132.08Z" style="fill:#72f1d0"/><path d="M56781.1,17041.2l0,-154.537l1132.08,0l0,-143.498l370.092,220.767l-370.092,220.767l0,-143.499l-1132.08,0Z" style="fill:#72f1d0"/><path d="M58283.3,33867.1l0,154.537l-1132.08,-0l0,143.498l-370.092,-220.767l370.092,-220.767l0,143.499l1132.08,-0Z" style="fill:#72f1d0"/><path d="M53392.2,33873.3l0,154.537l-1132.08,-0l-0,143.498l-370.092,-220.767l370.092,-220.767l-0,143.499l1132.08,-0Z" style="fill:#72f1d0"/><path d="M41367.9,27541.2l-154.537,0l0,-1132.08l-143.499,-0l220.767,-370.093l220.768,370.093l-143.499,-0l-0,1132.08Z" style="fill:#72f1d0"/><path d="M37879.6,21199.8l-0,154.537l-1132.08,-0l0,143.498l-370.092,-220.767l370.092,-220.767l0,143.499l1132.08,-0Z" style="fill:#72f1d0"/><path d="M34673.1,24612.8l154.537,-0l-0,1132.08l143.498,0l-220.767,370.092l-220.767,-370.092l143.499,0l-0,-1132.08Z" style="fill:#72f1d0"/><path d="M28861.3,26115l-154.537,0l-0,-1132.08l-143.499,-0l220.767,-370.092l220.767,370.092l-143.498,-0l-0,1132.08Z" style="fill:#72f1d0"/><path d="M26409.8,21199.8l0,154.537l-1132.08,-0l-0,143.498l-370.093,-220.767l370.093,-220.767l-0,143.499l1132.08,-0Z" style="fill:#72f1d0"/><path d="M21568.4,18686.3l-154.537,-0l0,-1132.08l-143.498,0l220.767,-370.092l220.767,370.092l-143.499,0l0,1132.08Z" style="fill:#72f1d0"/><path d="M66315.7,20818.7l154.537,-0l0,1132.08l143.499,-0l-220.767,370.092l-220.767,-370.092l143.498,-0l0,-1132.08Z" style="fill:#72f1d0"/><path d="M66315.7,28378.7l154.537,-0l0,1132.08l143.499,-0l-220.767,370.092l-220.767,-370.092l143.498,-0l0,-1132.08Z" style="fill:#72f1d0"/><text x="21200.7" y="4612.19" style="font-family:'Lato-Bold','Lato',sans-serif;font-weight:700;font-size:416.667px;fill:#3be7ec">UI ASKS PRESENTER</text><g><text x="16584.4" y="12843.4" style="font-family:'Lato-Bold','Lato',sans-serif;font-weight:700;font-size:133.333px;fill:#40a9eb" transform="matrix(3.125,0,0,3.125,-30607.2,-17826.9)">PRESENTER RETURNS</text><text x="16777.1" y="13008.8" style="font-family:'Lato-Bold','Lato',sans-serif;font-weight:700;font-size:133.333px;fill:#40a9eb" transform="matrix(3.125,0,0,3.125,-30607.2,-17826.9)">PRESENT<tspan x="17342.3 17427.2" y="13008.8 13008.8">AT</tspan>ION</text><text x="17028.7" y="13174.1" style="font-family:'Lato-Bold','Lato',sans-serif;font-weight:700;font-size:133.333px;fill:#40a9eb" transform="matrix(3.125,0,0,3.125,-30607.2,-17826.9)">MODEL</text></g><g><text x="16718.9" y="12843.4" style="font-family:'Lato-Bold','Lato',sans-serif;font-weight:700;font-size:133.333px;fill:#40a9eb" transform="matrix(3.125,0,0,3.125,-14701.5,-35523.5)">PRESENTER ASKS</text><text x="16982.7" y="13008.8" style="font-family:'Lato-Bold','Lato',sans-serif;font-weight:700;font-size:133.333px;fill:#40a9eb" transform="matrix(3.125,0,0,3.125,-14701.5,-35523.5)">DOMAIN</text></g><g><text x="16718.9" y="12843.4" style="font-family:'Lato-Bold','Lato',sans-serif;font-weight:700;font-size:133.333px;fill:#40a9eb" transform="matrix(1.91351e-16,3.125,-3.125,1.91351e-16,76095.7,-28593.8)">PRESENTER ASKS</text><text x="16873" y="13008.8" style="font-family:'Lato-Bold','Lato',sans-serif;font-weight:700;font-size:133.333px;fill:#40a9eb" transform="matrix(1.91351e-16,3.125,-3.125,1.91351e-16,76095.7,-28593.8)">D<tspan x="16969.2 17054.1 17123.6" y="13008.8 13008.8 13008.8">ATA</tspan> ST<tspan x="17389.7" y="13008.8">O</tspan>RE</text></g><g><text x="16669.9" y="12843.4" style="font-family:'Lato-Bold','Lato',sans-serif;font-weight:700;font-size:133.333px;fill:#ebda3d" transform="matrix(3.125,0,0,3.125,-14701.5,-21067.1)">DOMAIN RETURNS</text><text x="16732" y="13008.8" style="font-family:'Lato-Bold','Lato',sans-serif;font-weight:700;font-size:133.333px;fill:#ebda3d" transform="matrix(3.125,0,0,3.125,-14701.5,-21067.1)">DOMAIN MODEL</text></g><g><text x="16618.9" y="12843.4" style="font-family:'Lato-Bold','Lato',sans-serif;font-weight:700;font-size:133.333px;fill:#ebda3d" transform="matrix(3.125,0,0,3.125,1382.95,-24670.1)">DOMAIN ASKS D<tspan x="17665 17749.9 17819.4" y="12843.4 12843.4 12843.4">ATA</tspan></text><text x="16901" y="13008.8" style="font-family:'Lato-Bold','Lato',sans-serif;font-weight:700;font-size:133.333px;fill:#ebda3d" transform="matrix(3.125,0,0,3.125,1382.95,-24670.1)">( THR<tspan x="17231" y="13008.8">O</tspan>UGH</text><text x="16822.4" y="13174.1" style="font-family:'Lato-Bold','Lato',sans-serif;font-weight:700;font-size:133.333px;fill:#ebda3d" transform="matrix(3.125,0,0,3.125,1382.95,-24670.1)">REPOSIT<tspan x="17363.6" y="13174.1">O</tspan>RY )</text></g><g><text x="16781.1" y="12843.4" style="font-family:'Lato-Bold','Lato',sans-serif;font-weight:700;font-size:133.333px;fill:#ec3c56" transform="matrix(3.125,0,0,3.125,1382.95,-8896.04)">D<tspan x="16877.3 16962.2 17031.7" y="12843.4 12843.4 12843.4">ATA</tspan> RETURNS</text><text x="16689.1" y="13008.8" style="font-family:'Lato-Bold','Lato',sans-serif;font-weight:700;font-size:133.333px;fill:#ec3c56" transform="matrix(3.125,0,0,3.125,1382.95,-8896.04)">MAPPED DOMAIN</text><text x="17028.7" y="13174.1" style="font-family:'Lato-Bold','Lato',sans-serif;font-weight:700;font-size:133.333px;fill:#ec3c56" transform="matrix(3.125,0,0,3.125,1382.95,-8896.04)">MODEL</text></g><g><text x="16677" y="12843.4" style="font-family:'Lato-Bold','Lato',sans-serif;font-weight:700;font-size:133.333px;fill:#ec3c56" transform="matrix(1.91351e-16,3.125,-3.125,1.91351e-16,105252,-32421.3)">REPOSIT<tspan x="17218.2" y="12843.4">O</tspan>RY ASKS</text><text x="16818.4" y="13008.8" style="font-family:'Lato-Bold','Lato',sans-serif;font-weight:700;font-size:133.333px;fill:#ec3c56" transform="matrix(1.91351e-16,3.125,-3.125,1.91351e-16,105252,-32421.3)">D<tspan x="16914.7 16999.5 17069.1" y="13008.8 13008.8 13008.8">ATA</tspan> SOUR<tspan x="17548.8" y="13008.8">C</tspan>E</text></g><g><text x="16883.6" y="12843.4" style="font-family:'Lato-Bold','Lato',sans-serif;font-weight:700;font-size:133.333px;fill:#ec3c56" transform="matrix(1.91351e-16,3.125,-3.125,1.91351e-16,105252,-25031.6)">D<tspan x="16979.9 17064.7 17134.3" y="12843.4 12843.4 12843.4">ATA</tspan> SOUR<tspan x="17614" y="12843.4">C</tspan>E</text><text x="16595.6" y="13008.8" style="font-family:'Lato-Bold','Lato',sans-serif;font-weight:700;font-size:133.333px;fill:#ec3c56" transform="matrix(1.91351e-16,3.125,-3.125,1.91351e-16,105252,-25031.6)">RETURNS D<tspan x="17317.4 17402.2 17471.8" y="13008.8 13008.8 13008.8">ATA</tspan> MODEL</text></g><g><text x="16601.4" y="12843.4" style="font-family:'Lato-Bold','Lato',sans-serif;font-weight:700;font-size:133.333px;fill:#61ec3e" transform="matrix(1.91351e-16,-3.125,3.125,1.91351e-16,-12699.9,79450.1)">D<tspan x="16697.6 16782.5 16852" y="12843.4 12843.4 12843.4">ATA</tspan> ST<tspan x="17118.1" y="12843.4">O</tspan>RE RETURNS</text><text x="16914.1" y="13008.8" style="font-family:'Lato-Bold','Lato',sans-serif;font-weight:700;font-size:133.333px;fill:#61ec3e" transform="matrix(1.91351e-16,-3.125,3.125,1.91351e-16,-12699.9,79450.1)">ST<tspan x="17059.8" y="13008.8">O</tspan>RE D<tspan x="17452 17536.9 17606.4" y="13008.8 13008.8 13008.8">ATA</tspan></text></g><g><rect width="7837.12" height="2993.5" x="59905.7" y="10882" style="fill:#fbe3e0"/><g><text x="16578.5" y="12823.6" style="font-family:'Lato-Bold','Lato',sans-serif;font-weight:700;font-size:106.667px;fill:#ec3c56" transform="matrix(3.125,0,0,3.125,8561.48,-28402.6)">Ev<tspan x="16694.7" y="12823.6">e</tspan>ry Repository has injected speciﬁc data</text><text x="16578.5" y="12951.6" style="font-family:'Lato-Bold','Lato',sans-serif;font-weight:700;font-size:106.667px;fill:#ec3c56" transform="matrix(3.125,0,0,3.125,8561.48,-28402.6)">source client. In repository y<tspan x="17920.6" y="12951.6">o</tspan>u ask data</text><text x="16578.5" y="13079.6" style="font-family:'Lato-Bold','Lato',sans-serif;font-weight:700;font-size:106.667px;fill:#ec3c56" transform="matrix(3.125,0,0,3.125,8561.48,-28402.6)">source with a speciﬁc pa<tspan x="17724.2" y="13079.6">y</tspan>load. Deﬁne separ<tspan x="18632.8" y="13079.6">a</tspan>te</text><text x="16578.5" y="13207.6" style="font-family:'Lato-Bold','Lato',sans-serif;font-weight:700;font-size:106.667px;fill:#ec3c56" transform="matrix(3.125,0,0,3.125,8561.48,-28402.6)">repository for separ<tspan x="17522.6" y="13207.6">a</tspan>te data source. Use Unit</text><text x="16578.5" y="13335.6" style="font-family:'Lato-Bold','Lato',sans-serif;font-weight:700;font-size:106.667px;fill:#ec3c56" transform="matrix(3.125,0,0,3.125,8561.48,-28402.6)">Of W<tspan x="16831.2" y="13335.6">o</tspan>rk pattern in case of dependency<tspan x="18429.8" y="13335.6">.</tspan></text></g></g><g><rect width="7837.12" height="2993.5" x="50756.4" y="27291.2" style="fill:#fbe3e0"/><g><text x="16578.5" y="12823.6" style="font-family:'Lato-Bold','Lato',sans-serif;font-weight:700;font-size:106.667px;fill:#ec3c56" transform="matrix(3.125,0,0,3.125,-587.758,-11993.5)">Data source is represented b<tspan x="17932.3" y="12823.6">y</tspan> deﬁnition of it&apos;s</text><text x="16578.5" y="12951.6" style="font-family:'Lato-Bold','Lato',sans-serif;font-weight:700;font-size:106.667px;fill:#ec3c56" transform="matrix(3.125,0,0,3.125,-587.758,-11993.5)">client. Ev<tspan x="17007" y="12951.6">e</tspan>ry data source should ha<tspan x="18212.7 18267.9" y="12951.6 12951.6">ve</tspan> it&apos;s own</text><text x="16578.5" y="13079.6" style="font-family:'Lato-Bold','Lato',sans-serif;font-weight:700;font-size:106.667px;fill:#ec3c56" transform="matrix(3.125,0,0,3.125,-587.758,-11993.5)">client implementation which is injected then</text><text x="16578.5" y="13207.6" style="font-family:'Lato-Bold','Lato',sans-serif;font-weight:700;font-size:106.667px;fill:#ec3c56" transform="matrix(3.125,0,0,3.125,-587.758,-11993.5)">to repository<tspan x="17193.3" y="13207.6">.</tspan> Data source deﬁne it&apos;s own data</text><text x="16578.5" y="13335.6" style="font-family:'Lato-Bold','Lato',sans-serif;font-weight:700;font-size:106.667px;fill:#ec3c56" transform="matrix(3.125,0,0,3.125,-587.758,-11993.5)">models tr<tspan x="17026.2" y="13335.6">a</tspan>nslated later to domain.</text></g></g><g><rect width="7837.12" height="2993.5" x="62708.6" y="38908.8" style="fill:#fbe3e0"/><g><text x="16578.5" y="12823.6" style="font-family:'Lato-Bold','Lato',sans-serif;font-weight:700;font-size:106.667px;fill:#ec3c56" transform="matrix(3.125,0,0,3.125,11364.4,-375.839)">Data source client returns data in it&apos;s own</text><text x="16578.5" y="12951.6" style="font-family:'Lato-Bold','Lato',sans-serif;font-weight:700;font-size:106.667px;fill:#ec3c56" transform="matrix(3.125,0,0,3.125,11364.4,-375.839)">speciﬁc format ( Data Model ). As repository</text><text x="16578.5" y="13079.6" style="font-family:'Lato-Bold','Lato',sans-serif;font-weight:700;font-size:106.667px;fill:#ec3c56" transform="matrix(3.125,0,0,3.125,11364.4,-375.839)">has an access to domain structures, it should</text><text x="16578.5" y="13207.6" style="font-family:'Lato-Bold','Lato',sans-serif;font-weight:700;font-size:106.667px;fill:#ec3c56" transform="matrix(3.125,0,0,3.125,11364.4,-375.839)">map Data Models to Domain models in a scope</text><text x="16578.5" y="13335.6" style="font-family:'Lato-Bold','Lato',sans-serif;font-weight:700;font-size:106.667px;fill:#ec3c56" transform="matrix(3.125,0,0,3.125,11364.4,-375.839)">of repository e<tspan x="17271" y="13335.6">x</tspan>posed function.</text></g></g><g><rect width="7837.12" height="2993.5" x="45814.9" y="9385.29" style="fill:#faf6d4"/><g><text x="16578.5" y="12823.6" style="font-family:'Lato-Bold','Lato',sans-serif;font-weight:700;font-size:106.667px;fill:#dfd151" transform="matrix(3.125,0,0,3.125,-5529.32,-29881.6)">Domain structures has injected repositories</text><text x="16578.5" y="12951.6" style="font-family:'Lato-Bold','Lato',sans-serif;font-weight:700;font-size:106.667px;fill:#dfd151" transform="matrix(3.125,0,0,3.125,-5529.32,-29881.6)">which are abstr<tspan x="17308.1" y="12951.6">a</tspan>ctions for data sources.</text><text x="16578.5" y="13079.6" style="font-family:'Lato-Bold','Lato',sans-serif;font-weight:700;font-size:106.667px;fill:#dfd151" transform="matrix(3.125,0,0,3.125,-5529.32,-29881.6)">Ev<tspan x="16694.7" y="13079.6">e</tspan>ntually y<tspan x="17160.6" y="13079.6">o</tspan>u can inject here also Unit of</text><text x="16578.5" y="13207.6" style="font-family:'Lato-Bold','Lato',sans-serif;font-weight:700;font-size:106.667px;fill:#dfd151" transform="matrix(3.125,0,0,3.125,-5529.32,-29881.6)">W<tspan x="16688" y="13207.6">o</tspan>rk. Ask repository for data through</text><text x="16578.5" y="13335.6" style="font-family:'Lato-Bold','Lato',sans-serif;font-weight:700;font-size:106.667px;fill:#dfd151" transform="matrix(3.125,0,0,3.125,-5529.32,-29881.6)">separ<tspan x="16840.3" y="13335.6">a</tspan>te Request Object.</text></g></g><g><rect width="7790.42" height="2299.34" x="31110.1" y="46209.8" style="fill:#d4f9ca"/><g><text x="16578.5" y="12823.6" style="font-family:'Lato-Bold','Lato',sans-serif;font-weight:700;font-size:106.667px;fill:#61ec3e" transform="matrix(3.125,0,0,3.125,-20220.1,6961.09)">In data store y<tspan x="17252.5" y="12823.6">o</tspan>u can k<tspan x="17637.9" y="12823.6">e</tspan>ep data for a speciﬁc</text><text x="16578.5" y="12951.6" style="font-family:'Lato-Bold','Lato',sans-serif;font-weight:700;font-size:106.667px;fill:#61ec3e" transform="matrix(3.125,0,0,3.125,-20220.1,6961.09)">fr<tspan x="16657.9" y="12951.6">a</tspan>mework. Data store deﬁnition ma<tspan x="18302.9" y="12951.6">y</tspan> vary</text><text x="16578.5" y="13079.6" style="font-family:'Lato-Bold','Lato',sans-serif;font-weight:700;font-size:106.667px;fill:#61ec3e" transform="matrix(3.125,0,0,3.125,-20220.1,6961.09)">depending on used fr<tspan x="17567.4" y="13079.6">a</tspan>mework ( Redux etc )</text></g></g><g><rect width="7790.42" height="1952.22" x="34392.4" y="28040.5" style="fill:#d4f9ca"/><g><text x="16578.5" y="12823.6" style="font-family:'Lato-Bold','Lato',sans-serif;font-weight:700;font-size:106.667px;fill:#61ec3e" transform="matrix(3.125,0,0,3.125,-16937.8,-11381.8)">Data store is also e<tspan x="17464" y="12823.6">x</tspan>posed to Presenter which</text><text x="16578.5" y="12951.6" style="font-family:'Lato-Bold','Lato',sans-serif;font-weight:700;font-size:106.667px;fill:#61ec3e" transform="matrix(3.125,0,0,3.125,-16937.8,-11381.8)">ma access it when needed, or updated it</text><text x="16578.5" y="13079.6" style="font-family:'Lato-Bold','Lato',sans-serif;font-weight:700;font-size:106.667px;fill:#61ec3e" transform="matrix(3.125,0,0,3.125,-16937.8,-11381.8)">simultaneously when asking domain for data.</text></g></g><g><rect width="8064.67" height="2054.98" x="22961.3" y="7243.62" style="fill:#d6ecf7"/><g><text x="16578.5" y="12823.6" style="font-family:'Lato-Bold','Lato',sans-serif;font-weight:700;font-size:106.667px;fill:#40a9eb" transform="matrix(3.125,0,0,3.125,-28465.5,-32137.5)">Presenter e<tspan x="17126.3" y="12823.6">x</tspan>poses speciﬁc set of functions which</text><text x="16578.5" y="12951.6" style="font-family:'Lato-Bold','Lato',sans-serif;font-weight:700;font-size:106.667px;fill:#40a9eb" transform="matrix(3.125,0,0,3.125,-28465.5,-32137.5)">has a clear deﬁnition of input ( Request Object )</text><text x="16578.5" y="13079.6" style="font-family:'Lato-Bold','Lato',sans-serif;font-weight:700;font-size:106.667px;fill:#40a9eb" transform="matrix(3.125,0,0,3.125,-28465.5,-32137.5)">and output ( Presentation Model ).</text></g></g><g><rect width="8064.67" height="2054.98" x="31026" y="1929.93" style="fill:#d6ecf7"/><g><text x="16578.5" y="12823.6" style="font-family:'Lato-Bold','Lato',sans-serif;font-weight:700;font-size:106.667px;fill:#40a9eb" transform="matrix(3.125,0,0,3.125,-20400.9,-37451.1)">Presenter has injected Domain Structures</text><text x="16578.5" y="12951.6" style="font-family:'Lato-Bold','Lato',sans-serif;font-weight:700;font-size:106.667px;fill:#40a9eb" transform="matrix(3.125,0,0,3.125,-20400.9,-37451.1)">through which asks for data required b<tspan x="18404.7" y="12951.6">y</tspan> upper</text><text x="16578.5" y="13079.6" style="font-family:'Lato-Bold','Lato',sans-serif;font-weight:700;font-size:106.667px;fill:#40a9eb" transform="matrix(3.125,0,0,3.125,-20400.9,-37451.1)">la<tspan x="16661.4 16716.5" y="13079.6 13079.6">ye</tspan>rs.</text></g></g><g><rect width="7802.61" height="2432.22" x="9848.8" y="4478.41" style="fill:#ddf8f8"/><g><text x="16578.5" y="12823.6" style="font-family:'Lato-Bold','Lato',sans-serif;font-weight:700;font-size:106.667px;fill:#3be7ec" transform="matrix(3.125,0,0,3.125,-41608.1,-34699.4)">Product feature has injected presenter which</text><text x="16578.5" y="12951.6" style="font-family:'Lato-Bold','Lato',sans-serif;font-weight:700;font-size:106.667px;fill:#3be7ec" transform="matrix(3.125,0,0,3.125,-41608.1,-34699.4)">can ask for data which is required to displa<tspan x="18581.9" y="12951.6">y</tspan></text><text x="16578.5" y="13079.6" style="font-family:'Lato-Bold','Lato',sans-serif;font-weight:700;font-size:106.667px;fill:#3be7ec" transform="matrix(3.125,0,0,3.125,-41608.1,-34699.4)">data for user or for markup related logic.</text></g></g><g><rect width="10133.5" height="4546.29" x="6817" y="43686.3" style="fill:#e5f3fa"/><g><text x="16578.5" y="12823.6" style="font-family:'Lato-Bold','Lato',sans-serif;font-weight:700;font-size:106.667px;fill:#7ec5f0" transform="matrix(3.125,0,0,3.125,-44421.8,4977.2)">UI La<tspan x="16819.3 16874.5" y="12823.6 12823.6">ye</tspan>r ma<tspan x="17139.4" y="12823.6">y</tspan> deﬁne it&apos;s own models if y<tspan x="18432.5" y="12823.6">o</tspan>u need, but in</text><text x="16578.5" y="12951.6" style="font-family:'Lato-Bold','Lato',sans-serif;font-weight:700;font-size:106.667px;fill:#7ec5f0" transform="matrix(3.125,0,0,3.125,-44421.8,4977.2)">gener<tspan x="16850.4" y="12951.6">a</tspan>l y<tspan x="17010.9" y="12951.6">o</tspan>u should use presentation models. In some of the</text><text x="16578.5" y="13079.6" style="font-family:'Lato-Bold','Lato',sans-serif;font-weight:700;font-size:106.667px;fill:#7ec5f0" transform="matrix(3.125,0,0,3.125,-44421.8,4977.2)">cases y<tspan x="16911.2" y="13079.6">o</tspan>u ma<tspan x="17196.8" y="13079.6">y</tspan> try to use domain models but it&apos;s better to</text><text x="16578.5" y="13207.6" style="font-family:'Lato-Bold','Lato',sans-serif;font-weight:700;font-size:106.667px;fill:#7ec5f0" transform="matrix(3.125,0,0,3.125,-44421.8,4977.2)">k<tspan x="16634.2" y="13207.6">e</tspan>ep them separ<tspan x="17360.2" y="13207.6">a</tspan>ted. UI La<tspan x="17860.6 17915.7" y="13207.6 13207.6">ye</tspan>r asks through presenter with</text><text x="16578.5" y="13335.6" style="font-family:'Lato-Bold','Lato',sans-serif;font-weight:700;font-size:106.667px;fill:#7ec5f0" transform="matrix(3.125,0,0,3.125,-44421.8,4977.2)">use of request object for data to displa<tspan x="18387.9" y="13335.6">y</tspan> it for user with use</text><text x="16578.5" y="13463.6" style="font-family:'Lato-Bold','Lato',sans-serif;font-weight:700;font-size:106.667px;fill:#7ec5f0" transform="matrix(3.125,0,0,3.125,-44421.8,4977.2)">of speciﬁc fr<tspan x="17155.9" y="13463.6">a</tspan>mework.</text></g></g><g><text x="25102.8" y="112430" style="font-family:'Lato-Bold','Lato',sans-serif;font-weight:700;font-size:416.667px;fill:#7689ac" transform="matrix(6.12323e-17,-1,1,6.12323e-17,-98999.9,45589.6)">USER PERFORMS A<tspan x="28810.1" y="112430">C</tspan>TION</text></g><g><text x="25102.8" y="128108" style="font-family:'Lato-Bold','Lato',sans-serif;font-weight:700;font-size:416.667px;fill:#7689ac" transform="matrix(6.12323e-17,-1,1,6.12323e-17,-114678,61267.5)">UI READ<tspan x="26719.4" y="128108">Y</tspan> D<tspan x="27373.4 27638.6 27855.9" y="128108 128108 128108">ATA</tspan> IS P<tspan x="28895.1" y="128108">A</tspan>SSED T<tspan x="30500.1" y="128108">O</tspan> MARKUP</text></g></g></svg>