<svg xmlns="http://www.w3.org/2000/svg" xmlns:xlink="http://www.w3.org/1999/xlink" width="100%" height="100%" version="1.1" viewBox="0 0 78450 50917" xml:space="preserve" style="fill-rule:evenodd;clip-rule:evenodd;stroke-linecap:square;stroke-linejoin:round;stroke-miterlimit:1.5"><g id="UI-Layer-Architecture"><g id="Layers"><g id="UI-Layer"><rect width="73926.4" height="46330.4" x="4523.52" y="0" style="fill:#e8fce3"/><text x="26625.5" y="5711.36" style="font-family:'Lato-Bold','Lato',sans-serif;font-weight:700;font-size:5000px;fill:#c9f8be">D<tspan x="30235.5 33418 36025.5" y="5711.36 5711.36 5711.36">ATA</tspan> ST<tspan x="46003" y="5711.36">O</tspan>RE</text></g><g id="Product-Feature"><path d="M65622.2,40531.9l-48333.5,-0l-0,-32544.2l48333.5,0l0,32544.2Z" style="fill:#eefdea;stroke:#cef8d9;stroke-width:43.43px"/><g><text x="35960.2" y="11501.4" style="font-family:'Lato-Bold','Lato',sans-serif;font-weight:700;font-size:1250px;fill:#bef7c1" transform="matrix(1,2.71372e-17,3.43347e-16,1,0.00815817,-1.81899e-12)">D<tspan x="36862.7 37658.3 38310.2" y="11501.4 11501.4 11501.4">ATA</tspan> NAMESP<tspan x="44504.5 45360.2" y="11501.4 11501.4">AC</tspan>E</text></g></g></g><g id="Logic"><g id="Data-Access-Logic"><path d="M51452.2,29551.6l-19993.5,0l-0,-10583.6l19993.5,0l-0,10583.6Z" style="fill:#f5fdf5;stroke:#64d072;stroke-width:40.41px"/><g><text x="16636.6" y="9193.56" style="font-family:'Lato-Bold','Lato',sans-serif;font-weight:700;font-size:266.667px;fill:#9fea9f" transform="matrix(3.125,0,0,3.125,-14247.8,-4838.22)">D<tspan x="16829.2 16998.9 17138" y="9193.56 9193.56 9193.56">ATA</tspan> NAMESP<tspan x="18459.4 18642" y="9193.56 9193.56">AC</tspan>E</text><text x="16496.5" y="9577.56" style="font-family:'Lato-Bold','Lato',sans-serif;font-weight:700;font-size:266.667px;fill:#9fea9f" transform="matrix(3.125,0,0,3.125,-14247.8,-4838.22)">DEFINITION &amp; L<tspan x="18445" y="9577.56">O</tspan>GIC</text></g></g></g><g id="Data-Flows-description"><g><path d="M42441.6,37034.6l-154.537,-0l0,-1132.08l-143.498,-0l220.767,-370.092l220.767,370.092l-143.499,-0l0,1132.08Z" style="fill:#72f1d0"/><path d="M40331.8,35532.4l154.537,-0l0,1132.08l143.499,-0l-220.767,370.092l-220.767,-370.092l143.498,-0l0,-1132.08Z" style="fill:#72f1d0"/><g><text x="52889.9" y="129818" style="font-family:'Lato-Bold','Lato',sans-serif;font-weight:700;font-size:333.333px;fill:#9fea9f" transform="matrix(6.12323e-17,-1,1,6.12323e-17,-88662.2,90826.1)">D<tspan x="53130.6 53342.7 53516.6" y="129818 129818 129818">ATA</tspan> ST<tspan x="54181.7" y="129818">O</tspan>RE MODEL</text></g><g><text x="53711.9" y="129159" style="font-family:'Lato-Bold','Lato',sans-serif;font-weight:700;font-size:333.333px;fill:#9fea9f" transform="matrix(6.12323e-17,-1,1,6.12323e-17,-87180.9,90988.8)">INPUT D<tspan x="55022.9 55235 55408.9" y="129159 129159 129159">ATA</tspan></text></g></g></g><g id="Data-Flows"><path d="M41455.5,29551.6l-0,16778.8" style="fill:none;stroke:#61ec3e;stroke-width:125px;stroke-linecap:round"/><g><circle cx="41455.5" cy="29551.6" r="486.926" style="fill:#e8fce3"/><path d="M41455.5,30200.9c-358.323,0 -649.235,-290.912 -649.235,-649.235c-0,-358.322 290.912,-649.235 649.235,-649.235c358.322,0 649.235,290.913 649.235,649.235c-0,358.323 -290.913,649.235 -649.235,649.235Zm-0,-162.309c-268.742,0 -486.926,-218.184 -486.926,-486.926c-0,-268.742 218.184,-486.926 486.926,-486.926c268.742,-0 486.926,218.184 486.926,486.926c0,268.742 -218.184,486.926 -486.926,486.926Z" style="fill:#61ec3e"/><circle cx="41455.5" cy="29551.6" r="348.223" style="fill:#61ec3e"/></g><g id="Data-Flows-description1"><g><path d="M23308.9,25271l-0,-154.537l1132.08,0l0,-143.498l370.093,220.767l-370.093,220.767l0,-143.499l-1132.08,0Z" style="fill:#72f1d0"/><path d="M24811.1,23161.2l-0,154.537l-1132.08,0l-0,143.499l-370.092,-220.767l370.092,-220.767l-0,143.498l1132.08,0Z" style="fill:#72f1d0"/><text x="22407.2" y="23985.1" style="font-family:'Lato-Bold','Lato',sans-serif;font-weight:700;font-size:333.333px;fill:#9fea9f">D<tspan x="22647.9 22860.1 23033.9" y="23985.1 23985.1 23985.1">ATA</tspan> ST<tspan x="23699.1" y="23985.1">O</tspan>RE MODEL</text><text x="23066.6" y="24807.1" style="font-family:'Lato-Bold','Lato',sans-serif;font-weight:700;font-size:333.333px;fill:#9fea9f">INPUT D<tspan x="24377.6 24589.8 24763.6" y="24807.1 24807.1 24807.1">ATA</tspan></text></g></g><path d="M31430.5,24259.8l-26907,-0" style="fill:none;stroke:#61ec3e;stroke-width:125px;stroke-linecap:round"/><g><path d="M31034.3,24259.8c-0,-268.742 218.184,-486.927 486.926,-486.927c268.742,0 486.926,218.185 486.926,486.927c0,268.742 -218.184,486.926 -486.926,486.926c-268.742,-0 -486.926,-218.184 -486.926,-486.926Z" style="fill:#e8fce3"/><path d="M30872,24259.8c-0,-358.323 290.912,-649.235 649.235,-649.235c358.322,-0 649.235,290.912 649.235,649.235c-0,358.322 -290.913,649.235 -649.235,649.235c-358.323,-0 -649.235,-290.913 -649.235,-649.235Zm162.309,-0c-0,-268.742 218.184,-486.927 486.926,-486.927c268.742,0 486.926,218.185 486.926,486.927c0,268.742 -218.184,486.926 -486.926,486.926c-268.742,-0 -486.926,-218.184 -486.926,-486.926Z" style="fill:#61ec3e"/><path d="M31173,24259.8c-0,-192.19 156.033,-348.224 348.223,-348.224c192.189,0 348.223,156.034 348.223,348.224c-0,192.189 -156.034,348.223 -348.223,348.223c-192.19,-0 -348.223,-156.034 -348.223,-348.223Z" style="fill:#61ec3e"/></g><g id="Presentation"><path d="M78449.9,50916.5l-73863.9,0l-0,-4586.02l73863.9,-0l0,4586.02Z" style="fill:#e3f2fc"/><g><text x="29277.1" y="49828.4" style="font-family:'Lato-Bold','Lato',sans-serif;font-weight:700;font-size:3333.33px;fill:#bee1f7" transform="matrix(1,2.71372e-17,3.43347e-16,1,0.00664201,0)">PRESENT<tspan x="43407.1 45528.8" y="49828.4 49828.4">AT</tspan>ION</text></g></g></g><g id="UI-Layer1"><rect width="4585.94" height="50916.5" x=".078" y="0" style="fill:#ebf7fd"/><g><text x="3484.77" y="25954.8" style="font-family:'Lato-Bold','Lato',sans-serif;font-weight:700;font-size:3333.33px;fill:#d8ebf6" transform="matrix(9.23273e-17,-1,1,7.42446e-17,-22470.1,29439.6)">UI</text></g></g><g><rect width="7790.42" height="2166.76" x="61727" y="36863.8" style="fill:#d4f9ca"/><g><text x="16578.5" y="12823.6" style="font-family:'Lato-Bold','Lato',sans-serif;font-weight:700;font-size:106.667px;fill:#61ec3e" transform="matrix(3.125,0,0,3.125,10396.8,-2641.87)">Sometimes Presentation la<tspan x="17851 17906.1" y="12823.6 12823.6">ye</tspan>r ma<tspan x="18171" y="12823.6">y</tspan> need to</text><text x="16578.5" y="12951.6" style="font-family:'Lato-Bold','Lato',sans-serif;font-weight:700;font-size:106.667px;fill:#61ec3e" transform="matrix(3.125,0,0,3.125,10396.8,-2641.87)">access data store la<tspan x="17493.8 17549" y="12951.6 12951.6">ye</tspan>r to either update data</text><text x="16578.5" y="13079.6" style="font-family:'Lato-Bold','Lato',sans-serif;font-weight:700;font-size:106.667px;fill:#61ec3e" transform="matrix(3.125,0,0,3.125,10396.8,-2641.87)">within store itself or get some data for a data</text><text x="16578.5" y="13207.6" style="font-family:'Lato-Bold','Lato',sans-serif;font-weight:700;font-size:106.667px;fill:#61ec3e" transform="matrix(3.125,0,0,3.125,10396.8,-2641.87)">store call.</text></g></g><g><rect width="7790.42" height="3096.12" x="13393.5" y="9566.17" style="fill:#d4f9ca"/><g><text x="16578.5" y="12823.6" style="font-family:'Lato-Bold','Lato',sans-serif;font-weight:700;font-size:106.667px;fill:#61ec3e" transform="matrix(3.125,0,0,3.125,-37936.7,-29856.5)">Data store in gener<tspan x="17483.5" y="12823.6">a</tspan>l don<tspan x="17766.9" y="12823.6">&apos;</tspan>t ha<tspan x="17968.7 18023.9" y="12823.6 12823.6">ve</tspan> access to an<tspan x="18667" y="12823.6">y</tspan></text><text x="16578.5" y="12951.6" style="font-family:'Lato-Bold','Lato',sans-serif;font-weight:700;font-size:106.667px;fill:#61ec3e" transform="matrix(3.125,0,0,3.125,-37936.7,-29856.5)">la<tspan x="16661.4 16716.5 16773.5 16809.8" y="12951.6 12951.6 12951.6 12951.6">yer.</tspan> It contains logic, data or structures</text><text x="16578.5" y="13079.6" style="font-family:'Lato-Bold','Lato',sans-serif;font-weight:700;font-size:106.667px;fill:#61ec3e" transform="matrix(3.125,0,0,3.125,-37936.7,-29856.5)">related only to store data which in this</text><text x="16578.5" y="13207.6" style="font-family:'Lato-Bold','Lato',sans-serif;font-weight:700;font-size:106.667px;fill:#61ec3e" transform="matrix(3.125,0,0,3.125,-37936.7,-29856.5)">implementation we consider it to be closer to</text><text x="16578.5" y="13335.6" style="font-family:'Lato-Bold','Lato',sans-serif;font-weight:700;font-size:106.667px;fill:#61ec3e" transform="matrix(3.125,0,0,3.125,-37936.7,-29856.5)">ui la<tspan x="16771.5 16826.6" y="13335.6 13335.6">ye</tspan>r than data la<tspan x="17504 17559.1 17616.1 17652.5" y="13335.6 13335.6 13335.6 13335.6">yer.</tspan> UI and Presentation</text><text x="16578.5" y="13463.6" style="font-family:'Lato-Bold','Lato',sans-serif;font-weight:700;font-size:106.667px;fill:#61ec3e" transform="matrix(3.125,0,0,3.125,-37936.7,-29856.5)">la<tspan x="16661.4 16716.5" y="13463.6 13463.6">ye</tspan>rs can access it when needed.</text></g></g></g></svg>